<svg width="182" height="183" viewBox="0 0 182 183" fill="none" xmlns="http://www.w3.org/2000/svg">
<path d="M163.968 38.0468L163.968 38.0469C162.891 41.582 162.89 45.0346 163.731 47.7508C164.572 50.4696 166.234 52.397 168.459 53.0304C170.689 53.6648 173.176 52.914 175.414 51.0643C177.647 49.2177 179.582 46.3106 180.658 42.773L180.658 42.7729C181.735 39.2376 181.738 35.785 180.898 33.0689C180.057 30.3502 178.395 28.4228 176.168 27.7894C173.937 27.155 171.451 27.9058 169.213 29.7555C166.979 31.6021 165.045 34.5092 163.968 38.0468ZM136.568 16.7862L136.568 16.7865C135.556 21.8564 135.862 26.6478 137.148 30.2893C138.438 33.9425 140.673 36.3475 143.468 36.8678C146.263 37.3861 149.267 35.9517 151.871 33.0192C154.467 30.097 156.592 25.7569 157.601 20.6873L157.601 20.6868C158.615 15.6169 158.311 10.8256 157.026 7.18409C155.736 3.53097 153.502 1.12603 150.707 0.605678C147.909 0.0847196 144.903 1.51906 142.298 4.45229C139.702 7.37513 137.576 11.7166 136.568 16.7862ZM85.4867 124.734L85.4867 124.734C84.4072 128.272 84.4056 131.726 85.2471 134.443C86.0894 137.162 87.7531 139.089 89.9774 139.723C92.2081 140.357 94.6946 139.606 96.9323 137.757C99.1662 135.911 101.101 133.006 102.177 129.471C103.254 125.933 103.256 122.479 102.415 119.762C101.573 117.043 99.9107 115.115 97.6864 114.482C95.4557 113.848 92.9693 114.598 90.7316 116.447C88.4977 118.293 86.5634 121.199 85.4867 124.734ZM18.0973 124.647L18.574 124.496L18.0973 124.647C16.9823 121.12 15.0127 118.233 12.753 116.41C10.4896 114.584 7.98692 113.859 5.7551 114.518L5.75475 114.519C3.52959 115.174 1.88127 117.12 1.06395 119.849C0.247391 122.576 0.283035 126.031 1.39804 129.558C2.51295 133.085 4.48265 135.972 6.74229 137.795C9.00571 139.621 11.5084 140.346 13.7402 139.686C15.9657 139.028 17.6141 137.081 18.4314 134.352C19.2479 131.625 19.2122 128.171 18.0973 124.647ZM64.986 123.555L64.9863 123.555C67.7845 124.076 70.7899 122.643 73.395 119.71C75.9908 116.788 78.1166 112.447 79.1252 107.374C80.134 102.304 79.8268 97.5129 78.5408 93.8713C77.2508 90.2178 75.0172 87.813 72.2253 87.2927C69.4272 86.7745 66.4218 88.2103 63.8168 91.1441C61.2208 94.0676 59.0951 98.4091 58.0864 103.479C57.0777 108.546 57.3849 113.337 58.6708 116.979C59.9609 120.633 62.1944 123.037 64.986 123.555ZM98.783 81.6593C98.783 87.7106 99.6804 91.2961 101.197 93.3335C102.676 95.3194 104.817 95.9237 107.626 95.7899C110.002 95.6767 112.761 95.041 115.862 94.3265C116.464 94.1877 117.079 94.0459 117.708 93.9044C121.54 93.0406 125.794 92.2017 130.27 92.2017C134.744 92.2017 138.997 93.0409 142.83 93.9051C143.458 94.0467 144.073 94.1886 144.676 94.3275C147.776 95.0424 150.535 95.6785 152.911 95.7919C155.721 95.926 157.863 95.322 159.341 93.3357C160.859 91.2981 161.756 87.712 161.756 81.6593C161.756 73.876 158.236 65.7124 152.519 59.4914C146.804 53.2732 138.934 49.0373 130.27 49.0373C121.605 49.0373 113.735 53.2732 108.021 59.4914C102.303 65.7124 98.783 73.876 98.783 81.6593ZM181.137 42.9185L181.137 42.9185L181.137 42.9185ZM79.8794 42.8654C80.9943 46.3921 82.964 49.2793 85.2236 51.1025C87.487 52.9287 89.9897 53.6534 92.2215 52.9939C94.4498 52.3354 96.0981 50.3881 96.9147 47.6585C97.7306 44.9313 97.6936 41.4762 96.5786 37.949C95.4636 34.4222 93.494 31.535 91.2343 29.7119C88.971 27.8857 86.4683 27.161 84.2365 27.8204C82.011 28.4789 80.3626 30.4262 79.5453 33.156C78.7287 35.8832 78.7644 39.3383 79.8794 42.8654ZM102.954 20.8007C104.024 25.8597 106.2 30.1773 108.83 33.0712C111.469 35.9754 114.489 37.3764 117.28 36.8255C120.066 36.2754 122.272 33.8462 123.52 30.1783C124.764 26.5222 125.014 21.7267 123.945 16.6674C122.875 11.6084 120.699 7.2908 118.069 4.39691C115.43 1.49266 112.41 0.0917437 109.619 0.642586C106.833 1.19543 104.628 3.6248 103.381 7.29176C102.138 10.9471 101.887 15.7413 102.954 20.8007ZM20.3017 168.352C20.3017 174.403 21.1995 177.989 22.7166 180.026C24.1955 182.012 26.3375 182.616 29.1473 182.482C31.5236 182.369 34.283 181.733 37.3841 181.019C37.9862 180.88 38.6011 180.738 39.2286 180.597C43.0612 179.733 47.3138 178.894 51.7884 178.894C56.263 178.894 60.5156 179.733 64.3482 180.597C64.9757 180.738 65.5906 180.88 66.1927 181.019C69.2939 181.733 72.0532 182.369 74.4295 182.482C77.2393 182.616 79.3813 182.012 80.8602 180.026C82.3773 177.989 83.2751 174.403 83.2751 168.352C83.2751 160.571 79.7548 152.408 74.0376 146.186C68.3229 139.967 60.4526 135.73 51.7884 135.73C43.1243 135.73 35.2539 139.967 29.5392 146.186C23.822 152.408 20.3017 160.571 20.3017 168.352ZM24.4728 107.493C25.5451 112.55 27.7218 116.867 30.3506 119.762C32.9888 122.667 36.0082 124.069 38.7982 123.518C41.5851 122.965 43.7926 120.534 45.0415 116.867C46.2865 113.211 46.5387 108.416 45.4692 103.36C44.3969 98.3008 42.2202 93.9832 39.5915 91.0894C36.9533 88.1851 33.9339 86.7842 31.1438 87.3351C28.3569 87.888 26.1494 90.3188 24.9005 93.9865C23.6555 97.6426 23.4033 102.437 24.4728 107.493Z" fill="#4D9FBF" stroke="#F7F7F7"/>
</svg>
