<svg width="107" height="30" viewBox="0 0 107 30" fill="none" xmlns="http://www.w3.org/2000/svg">
<g clip-path="url(#clip0_1328_19760)">
<path d="M16.5 22V14.2444C16.5 12.0444 15.3335 11 13.3749 11C11.7462 11 10.3377 11.9778 9.72146 12.9556C9.32535 11.7334 8.33493 11 6.77236 11C5.14372 11 3.73523 12.0222 3.29501 12.6666V11.2667H0.5V22H3.29501V14.7777C3.71317 14.1778 4.52745 13.5111 5.49581 13.5111C6.64032 13.5111 7.08044 14.2223 7.08044 15.2222V22H9.89751V14.7556C10.2936 14.1778 11.108 13.5111 12.0983 13.5111C13.2428 13.5111 13.6829 14.2223 13.6829 15.2222V22H16.5Z" fill="black"/>
<path d="M24.4883 22C28.2455 22 30.5 19.4832 30.5 16.4892C30.5 13.5168 28.2455 11 24.4883 11C20.7544 11 18.5 13.5168 18.5 16.4892C18.5 19.4832 20.7544 22 24.4883 22ZM24.4883 19.5483C22.633 19.5483 21.5998 18.1381 21.5998 16.4892C21.5998 14.8619 22.633 13.4517 24.4883 13.4517C26.3434 13.4517 27.4001 14.8619 27.4001 16.4892C27.4001 18.1381 26.3434 19.5483 24.4883 19.5483Z" fill="black"/>
<path d="M42.5 22V14.4222C42.5 12.3333 41.3742 11 39.0342 11C37.2903 11 35.9879 11.8444 35.3036 12.6666V11.2667H32.5V22H35.3036V14.7777C35.7672 14.1334 36.6281 13.5111 37.7318 13.5111C38.9238 13.5111 39.6965 14.0222 39.6965 15.5111V22H42.5Z" fill="black"/>
<path d="M50.4883 22C54.2458 22 56.5 19.4832 56.5 16.4892C56.5 13.5168 54.2458 11 50.4883 11C46.7545 11 44.5 13.5168 44.5 16.4892C44.5 19.4832 46.7545 22 50.4883 22ZM50.4883 19.5483C48.6333 19.5483 47.5999 18.1381 47.5999 16.4892C47.5999 14.8619 48.6333 13.4517 50.4883 13.4517C52.3438 13.4517 53.4005 14.8619 53.4005 16.4892C53.4005 18.1381 52.3438 19.5483 50.4883 19.5483Z" fill="black"/>
<path d="M61.3513 18.3108V14.5332C61.8221 13.8263 62.8776 13.2961 63.7973 13.2961C65.4594 13.2961 66.5595 14.5552 66.5595 16.4109C66.5595 18.2665 65.4594 19.5037 63.7973 19.5037C62.8776 19.5037 61.8221 18.9956 61.3513 18.3108ZM61.3513 21.7349V20.3652C62.2037 21.4256 63.394 22 64.6952 22C67.4346 22 69.5 19.9676 69.5 16.4109C69.5 12.9205 67.4574 10.7997 64.6952 10.7997C63.4167 10.7997 62.2037 11.352 61.3513 12.4344V7H58.5V21.7349H61.3513Z" fill="black"/>
<path d="M81.5 21.7396V14.9704C81.5 11.9546 79.2456 11 76.7902 11C75.0935 11 73.3977 11.5207 72.0803 12.6489L73.1514 14.4931C74.0668 13.6686 75.1378 13.2564 76.2985 13.2564C77.7272 13.2564 78.6652 13.9507 78.6652 15.0138V16.424C77.9509 15.5996 76.6788 15.144 75.2501 15.144C73.5317 15.144 71.5 16.0769 71.5 18.5286C71.5 20.8718 73.5317 22 75.2501 22C76.6562 22 77.9282 21.501 78.6652 20.6549V21.7396H81.5ZM76.3882 20.1342C75.2718 20.1342 74.3574 19.57 74.3574 18.5937C74.3574 17.574 75.2718 17.0099 76.3882 17.0099C77.3035 17.0099 78.1962 17.3136 78.6652 17.9211V19.2229C78.1962 19.8304 77.3035 20.1342 76.3882 20.1342Z" fill="black"/>
<path d="M93.5 22V14.4222C93.5 12.3333 92.3744 11 90.0345 11C88.291 11 86.988 11.8444 86.3038 12.6666V11.2667H83.5V22H86.3038V14.7777C86.7667 14.1334 87.6282 13.5111 88.7315 13.5111C89.9243 13.5111 90.6962 14.0222 90.6962 15.5111V22H93.5Z" fill="black"/>
<path d="M106.5 22L101.908 16.063L106.36 11.1379H102.724L98.4599 15.973V7H95.5V22H98.4599V19.2114L99.8117 17.817L102.794 22H106.5Z" fill="black"/>
</g>
<defs>
<clipPath id="clip0_1328_19760">
<rect width="106" height="30" fill="white" transform="translate(0.5)"/>
</clipPath>
</defs>
</svg>
