<?xml version="1.0" encoding="UTF-8" standalone="no"?>
<svg
   xmlns:svg="http://www.w3.org/2000/svg"
   xmlns="http://www.w3.org/2000/svg"
   width="190"
   height="59"
   viewBox="0 0 562.2395 90.962491"
   version="1.1">
   <g transform="translate(6.6145825,6.6145825)" >
      <path fill="#DA291C" d="M 66.062974,37.899401 54.971045,48.991321 V 18.741885 L 66.062974,29.8338 c 2.227146,2.227146 2.227146,5.838203 0,8.065601 M 27.88721,54.970865 V 40.901273 h 11.959101 v 14.069592 h 9.145183 L 37.899562,66.062783 c -2.2274,2.2274 -5.83846,2.2274 -8.065606,0 L 18.741774,54.970865 Z M 12.762223,18.741885 V 48.991321 L 1.6705513,37.899401 c -2.22740176,-2.227398 -2.22740176,-5.838455 0,-8.065601 z m 27.084088,-5.9798 V 26.831679 H 27.88721 V 12.762085 H 18.741774 L 29.833956,1.6701673 c 2.227146,-2.22688982 5.838206,-2.22688982 8.065606,0 L 48.991494,12.762085 Z" />
   </g>
   <g transform="matrix(1.5932082,0,0,1.5932292,-43.296468,-0.35056106)">
      <path fill="#DA291C" d="M 112.8723,12.762085 V 38.47451 H 101.62238 L 95.001479,18.869105 H 94.615565 V 38.47451 H 87.801704 V 19.447988 h -3.664215 v -6.685903 h 12.920192 c 1.222093,0 2.250533,0.706835 2.636458,1.863917 l 5.977691,17.742178 h 0.38592 V 12.762085 h 6.81454" />
      <path fill="#DA291C" d="m 136.21177,25.554324 c 0,-3.471252 -2.63646,-6.106336 -5.97908,-6.106336 -3.47055,0 -6.10632,2.635084 -6.10632,6.106336 0,3.535567 2.63577,6.234967 6.10632,6.234967 3.34262,0 5.97908,-2.6994 5.97908,-6.234967 z m -19.54247,0 c 0,-7.456375 5.91406,-13.178165 13.56339,-13.178165 7.58572,0 13.43546,5.72179 13.43546,13.178165 0,7.520691 -5.84974,13.306802 -13.43546,13.306802 -7.64933,0 -13.56339,-5.786111 -13.56339,-13.306802" />
      <path fill="#DA291C" d="m 143.82653,12.762085 h 7.84299 l 6.6209,19.156543 h 0.38594 l 6.68521,-19.156543 h 7.65004 l -9.386,25.712425 h -10.47739 l -9.32169,-25.712425" />
      <path fill="#DA291C" d="m 187.13867,27.99713 -2.95669,-8.614153 h -0.38594 l -3.021,8.614153 z m 1.99325,5.785415 h -10.41375 l -1.67097,4.691965 h -7.5857 l 10.02783,-25.712425 h 9.19303 l 9.96351,25.712425 h -7.90732 l -1.60663,-4.691965" />
      <path fill="#DA291C" d="m 228.83585,21.379001 c 0,-1.414371 -1.02774,-2.314169 -2.57075,-2.314169 h -6.10633 v 4.627644 h 6.10633 c 1.54301,0 2.57075,-0.899109 2.57075,-2.313475 z m 7.45845,-0.129337 c 0,5.207222 -3.79354,8.486201 -9.51464,8.486201 h -6.62089 v 8.742105 h -7.32912 V 19.450758 h -3.66352 v -6.685909 h 17.61353 c 5.7211,0 9.51464,3.278289 9.51464,8.484815" />
      <path fill="#DA291C" d="m 258.30103,25.557088 c 0,-3.471251 -2.63578,-6.10633 -5.97769,-6.10633 -3.47125,0 -6.10771,2.635079 -6.10771,6.10633 0,3.535573 2.63646,6.234973 6.10771,6.234973 3.34191,0 5.97769,-2.6994 5.97769,-6.234973 z m -19.54178,0 c 0,-7.45707 5.91475,-13.178159 13.56409,-13.178159 7.58501,0 13.43475,5.721089 13.43475,13.178159 0,7.520697 -5.84974,13.306808 -13.43475,13.306808 -7.64934,0 -13.56409,-5.786111 -13.56409,-13.306808" />
      <path fill="#DA291C" d="m 268.27006,30.377695 h 7.58571 c 0.64252,1.543698 2.24916,2.249843 4.82131,2.249843 2.76371,0 4.2417,-0.771156 4.2417,-1.863917 0,-1.413677 -1.28571,-1.863923 -5.65607,-2.31417 -6.68523,-0.706835 -10.35013,-3.792166 -10.35013,-8.227532 0,-4.692659 4.56401,-7.84299 11.31354,-7.84299 6.9432,0 11.44221,3.278283 12.21337,8.485505 h -8.22754 c -0.45025,-1.350045 -1.86391,-2.121207 -4.04945,-2.121207 -2.76441,0 -3.79285,0.707531 -3.79285,1.735281 0,1.092766 1.28502,1.543008 4.88562,1.863923 7.2641,0.70753 11.12127,3.536262 11.12127,8.356868 0,5.078576 -4.8863,8.164597 -11.95744,8.164597 -6.55658,0 -11.18492,-3.150343 -12.14904,-8.486201" />
      <path fill="#DA291C" d="M 320.48683,12.764849 V 38.47797 h -7.32427 v -9.385309 h -9.12941 v 9.385309 h -7.3305 V 12.764849 h 7.3305 v 9.385309 h 9.12941 v -9.385309 h 7.32427" />
      <path fill="#DA291C" d="m 348.98858,19.96463 h -8.67983 v 18.51334 h -7.32431 V 19.96463 h -8.67985 v -7.199781 h 24.68399 v 7.199781" />
      <path fill="#DA291C" d="m 364.61231,27.999894 -2.95322,-8.614147 h -0.38731 l -3.02242,8.614147 z m 1.99188,5.785421 h -10.4089 l -1.67374,4.692655 h -7.58706 l 10.02849,-25.713121 h 9.19164 l 9.96627,25.713121 h -7.90522 l -1.61148,-4.692655" />
  </g>
</svg>
