<svg width="160" height="59" viewBox="0 0 160 59" fill="none" xmlns="http://www.w3.org/2000/svg">
<path fill-rule="evenodd" clip-rule="evenodd" d="M69.7271 11.5C69.7271 11.5 69.7271 11.5 73.0293 11.5C74.2325 11.5 74.8387 12.0937 74.8387 13.4341C74.8387 13.4341 74.8387 13.4341 74.8387 18.184C74.8387 18.184 74.8387 18.184 81.3074 18.184C81.3074 18.184 81.3074 18.184 81.3074 13.4341C81.3074 12.0937 81.9045 11.5 83.2616 11.5C83.2616 11.5 83.2616 11.5 86.4191 11.5C86.4191 11.5 86.4191 11.5 86.4191 14.6216C86.4191 14.6216 86.4191 14.6216 85.071 14.6216L84.9172 14.7745C84.9172 14.7745 84.9172 14.7745 84.9172 28.1426C84.9172 28.1426 84.9172 28.1426 81.3074 28.1426C81.3074 28.1426 81.3074 28.1426 81.3074 21.4586C81.3074 21.4586 81.3074 21.4586 74.8387 21.4586C74.8387 21.4586 74.8387 21.4586 74.8387 28.1426C74.8387 28.1426 74.8387 28.1426 71.2289 28.1426C71.2289 28.1426 71.2289 28.1426 71.2289 14.7745C71.2289 14.7745 71.2289 14.6216 71.0751 14.6216C71.0751 14.6216 71.0751 14.6216 69.7271 14.6216C69.7271 14.6216 69.7271 14.6216 69.7271 11.5Z" fill="#ED1C24"/>
<path fill-rule="evenodd" clip-rule="evenodd" d="M95.8914 11.2031L95.9728 11.2121V14.6396L95.8914 14.6216C93.1863 14.6216 91.0783 16.8526 91.0783 19.6773C91.0783 22.646 93.1863 25.021 95.8914 25.021L95.9728 25.003V28.4304L95.8914 28.4394C91.0783 28.4394 87.1699 24.5802 87.1699 19.6773C87.1699 14.9185 91.0783 11.2031 95.8914 11.2031Z" fill="#ED1C24"/>
<path fill-rule="evenodd" clip-rule="evenodd" d="M95.9722 11.2119L97.6459 11.3738C101.618 12.1475 104.612 15.512 104.612 19.6771C104.612 23.9592 101.618 27.4587 97.6459 28.2593L95.9722 28.4302V25.0028L97.8087 24.6069C99.582 23.7973 100.858 21.8992 100.858 19.6771C100.858 17.5541 99.582 15.7729 97.8087 15.0172L95.9722 14.6394V11.2119Z" fill="#ED1C24"/>
<path fill-rule="evenodd" clip-rule="evenodd" d="M105.364 11.5C105.364 11.5 105.364 11.5 110.403 11.5H112.81V14.6216H112.583C112.285 14.6216 111.679 14.6216 110.475 14.6216C110.475 14.6216 110.475 14.6216 110.475 18.0401C110.475 18.0401 110.475 18.0401 111.498 18.0401H112.81V21.0088H112.041C111.661 21.0088 111.154 21.0088 110.475 21.0088C110.475 21.0088 110.475 21.0088 110.475 24.7241C110.475 24.877 110.475 24.877 110.629 24.877C110.629 24.877 110.629 24.877 111.706 24.877H112.81V28.1426H112.493C111.95 28.1426 110.855 28.1426 108.675 28.1426C107.472 28.1426 106.875 27.5488 106.875 26.2084V14.6216C106.875 14.6216 106.875 14.6216 105.364 14.6216C105.364 14.6216 105.364 14.6216 105.364 11.5Z" fill="#ED1C24"/>
<path fill-rule="evenodd" clip-rule="evenodd" d="M112.809 11.5H112.881C116.193 11.5 118.147 13.2812 118.147 15.962C118.147 17.5903 117.396 18.6338 116.645 19.3805C118.002 19.9742 118.898 21.4586 118.898 23.0868C118.898 26.2084 116.491 28.1426 113.035 28.1426C113.035 28.1426 113.035 28.1426 112.972 28.1426H112.809V24.877H113.18C114.383 24.877 115.143 24.1304 115.143 22.9429C115.143 21.7554 114.383 21.0088 113.18 21.0088C113.18 21.0088 113.18 21.0088 112.845 21.0088H112.809V18.0401H112.881C113.94 18.0401 114.537 17.2934 114.537 16.2589C114.537 15.2153 113.94 14.6216 112.881 14.6216C112.881 14.6216 112.881 14.6216 112.845 14.6216H112.809V11.5Z" fill="#ED1C24"/>
<path fill-rule="evenodd" clip-rule="evenodd" d="M125.819 11.5C125.819 11.5 125.819 11.5 127.339 11.5H127.619V16.2589C127.475 16.5557 127.321 16.9966 127.321 17.4464C127.321 17.4464 127.321 17.4464 126.118 20.8648C126.118 20.8648 126.118 20.8648 127.393 20.8648H127.619V23.9774H126.805C126.344 23.9774 125.819 23.9774 125.222 23.9774C125.222 23.9774 125.222 23.9774 124.163 26.6582C123.865 27.6928 123.268 28.1426 122.065 28.1426C122.065 28.1426 122.065 28.1426 119.803 28.1426C119.803 28.1426 119.803 28.1426 119.803 24.877C119.803 24.877 119.803 24.877 120.554 24.877C120.861 24.877 120.861 24.877 121.006 24.7241C121.006 24.7241 121.006 24.7241 125.819 11.5Z" fill="#ED1C24"/>
<path fill-rule="evenodd" clip-rule="evenodd" d="M127.62 11.5H129.429C129.429 11.5 129.429 11.5 134.242 24.7241C134.387 24.877 134.387 24.877 134.685 24.877C134.685 24.877 134.685 24.877 135.292 24.877C135.292 24.877 135.292 24.877 135.292 28.1426C135.292 28.1426 135.292 28.1426 133.184 28.1426C131.98 28.1426 131.383 27.6928 131.076 26.5053C131.076 26.5053 131.076 26.5053 130.026 23.9774C130.026 23.9774 130.026 23.9774 128 23.9774H127.62V20.8648H129.121C129.121 20.8648 129.121 20.8648 127.927 17.4464C127.927 16.9966 127.773 16.5557 127.62 16.2589V11.5Z" fill="#ED1C24"/>
<path fill-rule="evenodd" clip-rule="evenodd" d="M69.7271 32.8926C69.7271 32.8926 69.727 32.8926 82.8092 32.8926C84.0125 32.8926 84.7634 33.4863 84.7634 34.8267C84.7634 34.8267 84.7634 34.8267 84.7634 46.1167C84.7634 46.2606 84.7634 46.2606 84.9172 46.2606C84.9172 46.2606 84.9172 46.2606 86.1205 46.2606C86.1205 46.2606 86.1205 46.2606 86.1205 49.5352C86.1205 49.5352 86.1205 49.5352 82.9631 49.5352C81.606 49.5352 81.0089 48.9414 81.0089 47.601C81.0089 47.601 81.0089 47.601 81.0089 36.1671C81.0089 36.1671 81.0089 36.0142 80.8551 36.0142C80.8551 36.0142 80.8551 36.0142 74.8387 36.0142C74.8387 36.0142 74.8387 36.0142 74.8387 49.5352C74.8387 49.5352 74.8387 49.5352 71.2289 49.5352C71.2289 49.5352 71.2289 49.5352 71.2289 36.0142C71.2289 36.0142 71.2289 36.0142 69.7271 36.0142C69.7271 36.0142 69.7271 36.0142 69.7271 32.8926Z" fill="#ED1C24"/>
<path fill-rule="evenodd" clip-rule="evenodd" d="M95.5928 32.5957L95.6652 32.6047V36.0322L95.5928 36.0142C92.8787 36.0142 90.7797 38.2452 90.7797 41.0699C90.7797 44.0386 92.8787 46.4135 95.5928 46.4135L95.6652 46.3956V49.823L95.5928 49.832C90.7797 49.832 87.0161 45.9637 87.0161 41.0699C87.0161 36.311 90.7797 32.5957 95.5928 32.5957Z" fill="#ED1C24"/>
<path fill-rule="evenodd" clip-rule="evenodd" d="M95.6646 32.6045L97.3926 32.7664C101.437 33.5401 104.314 36.9046 104.314 41.0697C104.314 45.3518 101.437 48.8512 97.3926 49.6519L95.6646 49.8228V46.3953L97.5735 45.9995C99.3739 45.1899 100.559 43.2917 100.559 41.0697C100.559 38.9467 99.3739 37.1655 97.5735 36.4098L95.6646 36.032V32.6045Z" fill="#ED1C24"/>
<path fill-rule="evenodd" clip-rule="evenodd" d="M105.065 32.8926C105.065 32.8926 105.065 32.8926 108.376 32.8926C109.579 32.8926 110.177 33.4863 110.177 34.8267C110.177 34.8267 110.177 34.8267 110.177 46.1167C110.177 46.2606 110.177 46.2606 110.33 46.2606C110.33 46.2606 110.33 46.2606 114.691 46.2606C114.691 46.2606 114.691 46.2606 114.691 32.8926C114.691 32.8926 114.691 32.8926 118.301 32.8926C118.301 32.8926 118.301 32.8926 118.301 46.2606C118.301 46.2606 118.301 46.2606 122.662 46.2606C122.815 46.2606 122.815 46.2606 122.815 46.1167C122.815 46.1167 122.815 46.1167 122.815 34.8267C122.815 33.4863 123.413 32.8926 124.616 32.8926C124.616 32.8926 124.616 32.8926 127.927 32.8926C127.927 32.8926 127.927 32.8926 127.927 36.0142C127.927 36.0142 127.927 36.0142 126.57 36.0142C126.416 36.0142 126.416 36.1671 126.416 36.1671C126.416 36.1671 126.416 36.1671 126.416 47.601C126.416 48.9414 125.819 49.5352 124.616 49.5352C124.616 49.5352 124.616 49.5352 108.521 49.5352C107.173 49.5352 106.567 48.9414 106.567 47.601C106.567 47.601 106.567 47.601 106.567 36.1671C106.567 36.1671 106.567 36.0142 106.422 36.0142C106.422 36.0142 106.422 36.0142 105.065 36.0142C105.065 36.0142 105.065 36.0142 105.065 32.8926Z" fill="#ED1C24"/>
<path fill-rule="evenodd" clip-rule="evenodd" d="M130.777 32.8926C130.777 32.8926 130.777 32.8926 142.059 32.8926C143.416 32.8926 143.868 33.4863 143.868 34.6738C143.868 34.6738 143.868 34.6738 143.868 37.4985H140.557C140.557 37.4985 140.557 37.4985 140.557 36.1671C140.557 36.0142 140.557 36.0142 140.403 36.0142C140.403 36.0142 140.403 36.0142 138.304 36.0142C138.304 36.0142 138.304 36.0142 138.304 49.5352C138.304 49.5352 138.304 49.5352 134.685 49.5352C134.685 49.5352 134.685 49.5352 134.685 36.0142C134.685 36.0142 134.685 36.0142 132.586 36.0142C132.432 36.0142 132.432 36.0142 132.432 36.1671C132.432 36.1671 132.432 36.1671 132.432 37.4985C132.432 37.4985 132.432 37.4985 129.121 37.4985C129.121 37.4985 129.121 37.4985 129.121 34.6738C129.121 33.4863 129.573 32.8926 130.777 32.8926Z" fill="#ED1C24"/>
<path fill-rule="evenodd" clip-rule="evenodd" d="M148.528 32.8926C148.528 32.8926 148.528 32.8926 150.048 32.8926H150.328V37.6515C150.174 37.9483 150.029 38.3891 150.029 38.8389C150.029 38.8389 150.029 38.8389 148.826 42.2574C148.826 42.2574 148.826 42.2574 150.093 42.2574H150.328V45.37H149.514C149.052 45.37 148.528 45.37 147.921 45.37C147.921 45.37 147.921 45.37 146.872 47.8979C146.573 49.0854 145.967 49.5352 144.764 49.5352C144.764 49.5352 144.764 49.5352 142.511 49.5352C142.511 49.5352 142.511 49.5352 142.511 46.2606C142.511 46.2606 142.511 46.2606 143.262 46.2606C143.57 46.2606 143.57 46.2606 143.715 46.1167C143.715 46.1167 143.715 46.1167 148.528 32.8926Z" fill="#ED1C24"/>
<path fill-rule="evenodd" clip-rule="evenodd" d="M150.328 32.8926H152.129C152.129 32.8926 152.129 32.8926 156.951 46.1167C157.095 46.2606 157.095 46.2606 157.403 46.2606H158C158 46.2606 158 46.2606 158 49.5352C158 49.5352 158 49.5352 155.892 49.5352C154.689 49.5352 154.092 49.0854 153.784 47.8979C153.784 47.8979 153.784 47.8979 152.735 45.37C152.735 45.37 152.735 45.37 150.708 45.37H150.328V42.2574H151.83C151.83 42.2574 151.83 42.2574 150.627 38.8389C150.627 38.3891 150.482 37.9483 150.328 37.6515V32.8926Z" fill="#ED1C24"/>
<path fill-rule="evenodd" clip-rule="evenodd" d="M46.548 18.5798C46.7199 18.5258 46.9461 18.6338 47.1723 18.9306C47.1723 18.9306 47.1723 18.9306 57.3956 28.8802C57.9927 29.4739 57.9927 30.3735 57.3956 30.8143C57.3956 30.8143 57.3956 30.8143 47.1723 40.9168C46.9461 41.2137 46.7199 41.2857 46.548 41.1957C46.3761 41.1057 46.2676 40.8448 46.2676 40.467V19.2275C46.2676 18.8587 46.3761 18.6338 46.548 18.5798Z" fill="#ED1C24"/>
<path fill-rule="evenodd" clip-rule="evenodd" d="M29.06 2H29.7838L30.4804 2.28787C30.4804 2.28787 30.4804 2.28787 41.0023 12.6872C41.4546 13.281 41.3008 13.7308 40.5499 13.7308C40.5499 13.7308 40.5499 13.7308 36.1892 13.7308C35.4383 13.7308 34.8412 14.3245 34.8412 15.0712C34.8412 15.0712 34.8412 15.0712 34.8412 22.7897C34.8412 23.5364 34.235 24.1301 33.3303 24.1301C33.3303 24.1301 33.3303 24.1301 25.6673 24.1301C24.9164 24.1301 24.3103 23.5364 24.3103 22.7897C24.3103 22.7897 24.3103 22.7897 24.3103 15.0712C24.3103 14.3245 23.7132 13.7308 22.9532 13.7308H18.2939C17.543 13.7308 17.3892 13.281 17.8415 12.6872C17.8415 12.6872 17.8416 12.6872 28.3725 2.28787L29.06 2Z" fill="#ED1C24"/>
<path fill-rule="evenodd" clip-rule="evenodd" d="M12.5758 18.3546C12.7658 18.4446 12.8834 18.7054 12.8834 19.0833V40.7636C12.8834 41.1414 12.7658 41.3663 12.5758 41.4383C12.3949 41.5103 12.1325 41.4383 11.8249 41.2134C11.8249 41.2134 11.8249 41.2134 1.44783 30.814C0.850722 30.3732 0.850722 29.4736 1.44783 28.8799C1.44783 28.8799 1.44784 28.8799 11.8249 18.6335C12.1325 18.3366 12.3949 18.2646 12.5758 18.3546Z" fill="#ED1C24"/>
<path fill-rule="evenodd" clip-rule="evenodd" d="M25.6666 35.4199C25.6666 35.4199 25.6666 35.4199 33.3295 35.4199C34.2343 35.4199 34.8404 36.0137 34.8404 36.7603C34.8404 36.7603 34.8404 36.7603 34.8404 44.9287C34.8404 45.8193 35.4375 46.413 36.1884 46.413H40.2506C41.0015 46.413 41.3001 46.8538 40.703 47.3036C40.703 47.3036 40.703 47.3036 30.4797 57.55C30.1721 57.8469 29.8012 57.9998 29.4212 57.9998C29.0502 57.9998 28.6703 57.8469 28.3717 57.55C28.3717 57.55 28.3717 57.55 18.1484 47.3036C17.5422 46.8538 17.8408 46.413 18.5917 46.413C18.5917 46.413 18.5917 46.413 22.9524 46.413C23.7124 46.413 24.3095 45.8193 24.3095 44.9287C24.3095 44.9287 24.3095 44.9287 24.3095 36.7603C24.3095 36.0137 24.9157 35.4199 25.6666 35.4199Z" fill="#ED1C24"/>
</svg>
