<svg width="113" height="30" viewBox="0 0 113 30" fill="none" xmlns="http://www.w3.org/2000/svg">
<path d="M36.4769 6.10156C36.2692 6.10156 36.0929 6.252 36.0604 6.45685L33.6571 21.669C33.6483 21.7245 33.6518 21.7813 33.6671 21.8354C33.6825 21.8896 33.7094 21.9397 33.746 21.9825C33.7826 22.0252 33.8281 22.0595 33.8793 22.0831C33.9305 22.1066 33.9862 22.1188 34.0425 22.1188H36.8927C37.1 22.1188 37.2767 21.968 37.3092 21.7635L38.0151 17.2963C38.0473 17.0918 38.224 16.9411 38.4316 16.9411H41.0229C44.0506 16.9411 46.6208 14.7362 47.0903 11.7485C47.5636 8.73547 45.2052 6.1081 41.8627 6.10156H36.4769ZM39.2475 9.49749H41.3208C43.0277 9.49749 43.5836 10.5027 43.4078 11.6144C43.232 12.7284 42.3688 13.549 40.7176 13.549H38.6073L39.2475 9.49749ZM52.8871 10.5315C52.1674 10.5342 51.3393 10.6814 50.4096 11.0679C48.2771 11.9551 47.2529 13.7886 46.818 15.1254C46.818 15.1254 45.4337 19.2036 48.5612 21.4442C48.5612 21.4442 51.4618 23.6012 54.7269 21.3113L54.6706 21.669C54.6619 21.7245 54.6653 21.7812 54.6806 21.8353C54.6959 21.8894 54.7228 21.9395 54.7594 21.9822C54.7959 22.025 54.8413 22.0593 54.8924 22.0829C54.9435 22.1064 54.9992 22.1187 55.0555 22.1188H57.7612C57.9688 22.1188 58.1451 21.968 58.1776 21.7635L59.8234 11.3462C59.8323 11.2906 59.8289 11.2338 59.8136 11.1797C59.7984 11.1255 59.7715 11.0753 59.7349 11.0325C59.6984 10.9897 59.6529 10.9553 59.6018 10.9317C59.5506 10.9081 59.4949 10.8958 59.4386 10.8958H56.7329C56.5252 10.8958 56.3486 11.0465 56.3164 11.251L56.228 11.8118C56.228 11.8118 55.0465 10.5235 52.8871 10.5315ZM52.9756 13.8219C53.2863 13.8219 53.5705 13.8647 53.8255 13.9465C54.9929 14.3205 55.6548 15.4399 55.4633 16.6533C55.227 18.1473 53.9995 19.2473 52.4251 19.2473C52.1147 19.2473 51.8305 19.2048 51.5753 19.123C50.4081 18.749 49.7421 17.6296 49.9336 16.4163C50.1698 14.9223 51.4013 13.8219 52.9756 13.8219Z" fill="#003087"/>
<path d="M75.4378 6.10156C75.2302 6.10156 75.0538 6.252 75.0213 6.45685L72.618 21.669C72.6093 21.7245 72.6127 21.7813 72.628 21.8354C72.6434 21.8896 72.6703 21.9397 72.707 21.9825C72.7436 22.0252 72.7891 22.0595 72.8402 22.0831C72.8914 22.1066 72.9471 22.1188 73.0035 22.1188H75.8536C76.061 22.1188 76.2376 21.968 76.2701 21.7635L76.9761 17.2963C77.0083 17.0918 77.1849 16.9411 77.3925 16.9411H79.9838C83.0116 16.9411 85.5814 14.7362 86.0506 11.7485C86.5243 8.73547 84.1662 6.1081 80.8236 6.10156H75.4378ZM78.2084 9.49749H80.2817C81.9886 9.49749 82.5445 10.5027 82.3687 11.6144C82.193 12.7284 81.33 13.549 79.6785 13.549H77.5683L78.2084 9.49749ZM91.8478 10.5315C91.1281 10.5342 90.3 10.6814 89.3703 11.0679C87.2377 11.9551 86.2136 13.7886 85.7786 15.1254C85.7786 15.1254 84.395 19.2036 87.5225 21.4442C87.5225 21.4442 90.4224 23.6012 93.6878 21.3113L93.6315 21.669C93.6228 21.7245 93.6262 21.7813 93.6416 21.8354C93.6569 21.8896 93.6839 21.9397 93.7205 21.9825C93.7571 22.0252 93.8026 22.0595 93.8538 22.0831C93.905 22.1066 93.9606 22.1188 94.017 22.1188H96.7224C96.93 22.1188 97.1064 21.968 97.1389 21.7635L98.7853 11.3462C98.7941 11.2906 98.7908 11.2337 98.7754 11.1795C98.7601 11.1253 98.7332 11.0751 98.6966 11.0323C98.66 10.9895 98.6144 10.9551 98.5632 10.9315C98.512 10.908 98.4562 10.8958 98.3998 10.8958H95.6941C95.4865 10.8958 95.3098 11.0465 95.2777 11.251L95.1892 11.8118C95.1892 11.8118 94.0072 10.5235 91.8478 10.5315ZM91.9363 13.8219C92.247 13.8219 92.5312 13.8647 92.7861 13.9465C93.9536 14.3205 94.6155 15.4399 94.4239 16.6533C94.1877 18.1473 92.9601 19.2473 91.3858 19.2473C91.0754 19.2473 90.7912 19.2048 90.5359 19.123C89.3688 18.749 88.7027 17.6296 88.8942 16.4163C89.1305 14.9223 90.3619 13.8219 91.9363 13.8219Z" fill="#0070E0"/>
<path d="M61.1059 10.8968C60.8914 10.8968 60.7389 11.1058 60.8044 11.3095L63.7708 20.4968L61.0886 24.8263C60.9584 25.0365 61.1098 25.3079 61.3573 25.3079H64.5274C64.6181 25.3078 64.7072 25.2844 64.7861 25.2399C64.8651 25.1955 64.9312 25.1314 64.9781 25.054L73.2626 11.3755C73.3898 11.1653 73.2379 10.8965 72.9919 10.8965H69.8221C69.7305 10.8966 69.6406 10.9204 69.5611 10.9657C69.4816 11.011 69.4153 11.0762 69.3687 11.1549L66.1077 16.6498L64.4523 11.1956C64.3984 11.0181 64.2343 10.8965 64.0487 10.8965L61.1059 10.8968Z" fill="#003087"/>
<path d="M101.86 6.10156C101.653 6.10156 101.476 6.2523 101.444 6.45685L99.04 21.6684C99.0311 21.724 99.0345 21.7808 99.0498 21.835C99.0651 21.8892 99.092 21.9394 99.1287 21.9823C99.1653 22.0251 99.2108 22.0595 99.262 22.083C99.3133 22.1066 99.369 22.1188 99.4254 22.1188H102.276C102.483 22.1188 102.66 21.9681 102.692 21.7635L105.095 6.5514C105.104 6.49588 105.101 6.43914 105.085 6.38506C105.07 6.33098 105.043 6.28086 105.007 6.23812C104.97 6.19538 104.925 6.16105 104.874 6.13748C104.822 6.11391 104.767 6.10166 104.711 6.10156H101.86Z" fill="#0070E0"/>
<path d="M13.342 8.22754C13.2072 8.22765 13.0768 8.27576 12.9743 8.36322C12.8718 8.45068 12.8039 8.57176 12.7828 8.70471L11.8535 14.5871C11.8968 14.3124 12.134 14.1099 12.4128 14.1099H15.1358C17.8763 14.1099 20.2017 12.1145 20.6267 9.41052C20.6583 9.20865 20.6762 9.00487 20.6803 8.80058C19.9838 8.4361 19.1657 8.22754 18.2693 8.22754H13.342Z" fill="#001C64"/>
<path d="M20.6791 8.80176C20.6751 9.00605 20.6571 9.20983 20.6255 9.4117C20.2006 12.1157 17.8749 14.1111 15.1346 14.1111H12.4116C12.1331 14.1111 11.8957 14.3133 11.8524 14.5883L10.9979 19.9937L10.4627 23.3847C10.4523 23.4503 10.4562 23.5173 10.4742 23.5811C10.4922 23.645 10.5239 23.7042 10.5671 23.7546C10.6103 23.8051 10.6639 23.8456 10.7242 23.8733C10.7846 23.9011 10.8503 23.9155 10.9168 23.9154H13.8724C14.0072 23.9153 14.1376 23.8672 14.2401 23.7797C14.3426 23.6923 14.4105 23.5712 14.4316 23.4383L15.2101 18.51C15.2312 18.377 15.2992 18.2558 15.4018 18.1684C15.5044 18.0809 15.6349 18.0328 15.7698 18.0328H17.51C20.2505 18.0328 22.5759 16.0375 23.0009 13.3334C23.3026 11.4143 22.3342 9.66787 20.6791 8.80176Z" fill="#0070E0"/>
<path d="M9.9839 4.30713C9.70536 4.30713 9.46797 4.50935 9.42465 4.78386L7.10532 19.4627C7.06134 19.7414 7.27708 19.9934 7.55978 19.9934H10.9992L11.8532 14.588L12.7824 8.70559C12.8035 8.57264 12.8714 8.45156 12.9739 8.3641C13.0764 8.27664 13.2068 8.22853 13.3417 8.22842H18.2689C19.1656 8.22842 19.9835 8.4372 20.6799 8.80146C20.7276 6.33962 18.6923 4.30713 15.894 4.30713H9.9839Z" fill="#003087"/>
</svg>
