<svg width="161" height="30" viewBox="0 0 161 30" fill="none" xmlns="http://www.w3.org/2000/svg">
<g clip-path="url(#clip0_1328_19762)">
<path d="M31.1019 25.1295H27.2109V11.2891H41.2446V25.1295H37.3436V13.9432H31.1019V25.1295Z" fill="#54AF25"/>
<path d="M46.1187 19.8694C46.1187 17.1078 47.8873 16.5674 48.9939 16.5674C50.1005 16.5674 51.838 17.1078 51.838 19.8694C51.838 21.5804 51.0934 23.2213 48.9939 23.2213C46.8944 23.2213 46.1187 21.5804 46.1187 19.8694ZM42.623 14.9465V28.4244H46.2946V23.8217C47.3043 24.7241 48.6329 25.2182 50.0075 25.2025C53.5031 25.2025 55.6543 23.0412 55.6543 19.9094C55.6543 16.7776 53.5238 14.5863 50.0798 14.5863C49.3445 14.565 48.6127 14.6919 47.9308 14.9589C47.2489 15.2259 46.6318 15.6271 46.1187 16.1372H46.0463V14.9465H42.623Z" fill="#54AF25"/>
<path d="M64.6898 23.3162C64.1876 23.8196 63.587 24.2131 62.9257 24.472C62.2645 24.7308 61.557 24.8494 60.8478 24.8201C57.1787 24.8201 57.0059 22.0436 57.0059 20.906V14.9385H60.406V20.4529C60.406 22.3811 61.0591 22.9113 62.327 22.9113C62.6583 22.9145 62.9865 22.8459 63.289 22.7102C63.5916 22.5746 63.8614 22.3751 64.0802 22.1253C64.299 21.8755 64.4615 21.5813 64.5568 21.2628C64.6521 20.9442 64.6778 20.6088 64.6322 20.2794V14.9385H68.0323V24.4634H64.6898V23.3162Z" fill="#54AF25"/>
<path d="M73.8182 16.9299H75.677C76.6502 16.9299 77.4872 17.08 77.4872 17.9305C77.4872 18.7811 76.1734 18.8411 75.6089 18.8411H73.8182V16.9299ZM70.3633 14.9287V24.8147H77.1758C79.6672 24.8147 81.3898 24.3044 81.3898 22.2832C81.3898 20.7322 80.5528 20.0518 78.6453 19.7016V19.6416C79.2449 19.6254 79.817 19.3793 80.2492 18.9516C80.6813 18.5239 80.9424 17.9456 80.981 17.3302C80.981 14.9287 78.256 14.9287 77.1952 14.9287H70.3633ZM73.8182 20.6522H75.9495C77.5845 20.6522 77.8959 21.1525 77.8959 21.8229C77.8959 22.2432 77.6721 22.8235 75.9495 22.8235H73.7987L73.8182 20.6522Z" fill="#54AF25"/>
<path d="M90.5927 20.9003C90.5973 21.2443 90.534 21.5856 90.4068 21.903C90.2796 22.2203 90.0912 22.5069 89.8533 22.7448C89.6154 22.9827 89.3332 23.1669 89.0242 23.2859C88.7152 23.4048 88.386 23.456 88.0572 23.4363C87.4086 23.4363 86.2686 23.2104 86.2686 22.2555C86.2686 21.1159 87.5757 20.9003 88.3029 20.7976C89.0892 20.7454 89.8623 20.5617 90.5927 20.2534V20.9003ZM86.5635 18.2205C86.5635 16.7215 88.0769 16.6086 88.696 16.6086C89.0891 16.6086 90.5239 16.6086 90.5731 17.9433V18.2205C90.5043 19.2472 89.5903 19.0214 87.0253 19.3602C84.9124 19.6579 82.6914 20.2226 82.6914 22.5327C82.6914 23.3747 83.0354 25.4692 86.7502 25.4692C88.1823 25.5656 89.5937 25.0717 90.6812 24.0934H90.75L91.0448 25.1201H94.7203V24.9353C94.052 24.8018 94.0029 24.1242 94.0324 23.0256L94.1012 18.3951C94.1012 17.2143 94.0029 14.6064 88.755 14.6064C87.4971 14.6064 83.4383 14.7194 83.2811 18.2513L86.5635 18.2205Z" fill="#54AF25"/>
<path d="M95.0195 16.9279V14.9287H106.046V16.9279H102.257V24.8147H98.8178V16.9279H95.0195Z" fill="#54AF25"/>
<path d="M111.207 19.1194H114.405C115.347 19.1194 117.211 19.2211 117.211 20.8787C117.211 22.1804 115.858 22.4346 114.334 22.4346H111.207V19.1194ZM111.207 14.0348H120.068V11.2891H107.348V25.1295H115.166C118.956 25.1295 121.381 23.7871 121.381 20.9601C121.381 16.5263 116.52 16.4347 115.166 16.4347H111.217L111.207 14.0348Z" fill="#54AF25"/>
<path d="M130.705 20.9003C130.709 21.2443 130.646 21.5856 130.518 21.903C130.39 22.2203 130.2 22.5069 129.961 22.7448C129.722 22.9827 129.438 23.1669 129.127 23.2859C128.816 23.4048 128.485 23.456 128.155 23.4363C127.502 23.4363 126.356 23.2104 126.356 22.2555C126.356 21.1159 127.66 20.9003 128.402 20.7976C129.192 20.7454 129.97 20.5617 130.705 20.2534V20.9003ZM126.652 18.2205C126.652 16.7215 128.174 16.6086 128.797 16.6086C129.192 16.6086 130.635 16.6086 130.685 17.9433V18.2205C130.616 19.2472 129.696 19.0214 127.117 19.3602C124.992 19.6579 122.758 20.2226 122.758 22.5327C122.758 23.3747 123.104 25.4692 126.84 25.4692C128.28 25.5656 129.7 25.0717 130.794 24.0934L131.09 25.1201H134.787V24.9353C134.115 24.8018 134.065 24.1242 134.095 23.0256L134.164 18.3951C134.164 17.2143 134.065 14.6064 128.787 14.6064C127.522 14.6064 123.44 14.7194 123.282 18.2513L126.652 18.2205Z" fill="#54AF25"/>
<path d="M139.512 24.8245H136.115V14.9385H139.561V18.6607H143.696V14.9385H147.142V24.8245H143.696V20.6419H139.512V24.8245Z" fill="#54AF25"/>
<path d="M157.161 14.9385H161.251L156.196 19.5713L161.5 24.8245H157.192L153.217 20.5019H153.145V24.8245H149.471V14.9385H153.145V18.9409H153.217L157.161 14.9385Z" fill="#54AF25"/>
<path d="M9.52167 15.9561H0.5V24.8535H9.52167V15.9561Z" fill="black"/>
<path d="M0.5 2.4248V13.4626H2.99496C9.55617 13.4626 12.8792 16.6033 12.8792 22.8045V25.1626H24.5578V2.4248H0.5ZM19.6103 7.13091V20.4966H17.6993C16.8712 13.884 12.4758 9.73984 5.48992 8.94712V7.13091H19.6103Z" fill="#54AF25"/>
</g>
<defs>
<clipPath id="clip0_1328_19762">
<rect width="160" height="30" fill="white" transform="translate(0.5)"/>
</clipPath>
</defs>
</svg>
