<svg width="160" height="59" viewBox="0 0 160 59" fill="none" xmlns="http://www.w3.org/2000/svg">
<g clip-path="url(#clip0_238_690)">
<path d="M28.7326 33.1266L14.6331 29.8459C10.9997 29.003 8.45238 25.639 8.54984 21.8126C8.64731 17.9862 11.3624 14.7638 15.0337 14.1173C18.705 13.4709 22.3092 15.5805 23.6408 19.1552C24.9724 22.73 23.6602 26.7736 20.5073 28.8115C20.4471 28.8577 20.418 28.9352 20.4324 29.0109C20.4468 29.0866 20.5022 29.1472 20.5749 29.1666L26.8472 30.6256C26.9964 30.6611 27.152 30.6038 27.2453 30.4789C30.2836 26.3548 30.865 20.8464 28.7577 16.1488C26.6504 11.4512 22.1969 8.32785 17.172 8.02345H16.5861C10.7301 7.92934 5.316 11.2134 2.56646 16.5276C-0.18309 21.8417 0.195093 28.2906 3.54576 33.227L16.0904 51.6375C16.1455 51.7151 16.2334 51.761 16.327 51.761C16.4205 51.761 16.5084 51.7151 16.5636 51.6375L28.9129 33.6129C28.9785 33.5296 28.996 33.4167 28.9588 33.3165C28.9217 33.2163 28.8355 33.144 28.7326 33.1266Z" fill="#FFC627"/>
<path d="M40.804 16.6305C40.9254 16.6143 41.0443 16.6753 41.1045 16.7849L45.2885 24.1182H45.4914L49.0444 16.8853C49.1183 16.714 49.2912 16.6111 49.4726 16.6305H52.0266C52.1233 16.627 52.2146 16.6769 52.2657 16.7614C52.3169 16.8458 52.3202 16.952 52.2745 17.0396L44.9129 30.4249C44.8289 30.5839 44.6599 30.6753 44.4848 30.6565H41.9834C41.7054 30.6565 41.6829 30.4789 41.7806 30.2705L43.7561 26.7968L37.8444 16.9625C37.7467 16.7849 37.8444 16.6305 37.9946 16.6305H40.7965H40.804Z" fill="black"/>
<path d="M56.6687 16.6304C56.7657 16.6176 56.8629 16.6517 56.932 16.7227C57.001 16.7937 57.0342 16.8936 57.0218 16.9932V22.497L62.6556 16.8388C62.8431 16.693 63.0743 16.6193 63.3091 16.6304H66.3664C66.5918 16.6304 66.6669 16.8388 66.4941 17.0163L60.4847 22.7827L66.8472 30.2704C66.9215 30.3294 66.9486 30.432 66.9137 30.5216C66.8789 30.6112 66.7904 30.6662 66.6969 30.6563H63.6922C63.457 30.6768 63.2261 30.5825 63.0687 30.4016L58.2988 24.6276L57.0068 25.8627V30.3013C57.0192 30.4008 56.986 30.5007 56.9169 30.5717C56.8478 30.6427 56.7506 30.6768 56.6537 30.6641H54.4528C54.3559 30.6768 54.2587 30.6427 54.1896 30.5717C54.1205 30.5007 54.0873 30.4008 54.0997 30.3013V16.9777C54.0873 16.8782 54.1205 16.7783 54.1896 16.7073C54.2587 16.6363 54.3559 16.6022 54.4528 16.6149H56.6537L56.6687 16.6304Z" fill="black"/>
<path d="M75.1701 16.6304C76.5423 16.5611 77.883 17.0679 78.8845 18.0345C79.8859 19.001 80.4622 20.3443 80.4809 21.756C80.4809 24.7434 78.2274 26.9279 75.1701 26.9279H71.5419V30.3013C71.5544 30.4008 71.5212 30.5007 71.4521 30.5717C71.383 30.6427 71.2858 30.6768 71.1889 30.6641H68.9879C68.891 30.6768 68.7938 30.6427 68.7247 30.5717C68.6556 30.5007 68.6225 30.4008 68.6349 30.3013V16.9777C68.6225 16.8782 68.6556 16.7783 68.7247 16.7073C68.7938 16.6363 68.891 16.6022 68.9879 16.6149H75.1776L75.1701 16.6304ZM75.1701 24.0949C75.7979 24.1574 76.4216 23.9391 76.8817 23.4958C77.3419 23.0525 77.5941 22.427 77.5739 21.7792C77.6017 21.129 77.3518 20.4987 76.8898 20.0536C76.4278 19.6085 75.7997 19.3929 75.1701 19.4634H71.5419V24.0949H75.1701Z" fill="black"/>
<path d="M94.1672 16.6304C94.2641 16.6176 94.3613 16.6517 94.4304 16.7227C94.4995 16.7937 94.5326 16.8936 94.5202 16.9932V30.3013C94.5326 30.4008 94.4995 30.5007 94.4304 30.5717C94.3613 30.6427 94.2641 30.6768 94.1672 30.6641H91.9662C91.8693 30.6768 91.7721 30.6427 91.703 30.5717C91.6339 30.5007 91.6008 30.4008 91.6132 30.3013V19.4248H85.5512V30.2858C85.5636 30.3854 85.5305 30.4853 85.4614 30.5563C85.3923 30.6273 85.2951 30.6614 85.1982 30.6486H82.9972C82.9003 30.6614 82.8031 30.6273 82.734 30.5563C82.6649 30.4853 82.6317 30.3854 82.6442 30.2858V16.9777C82.6317 16.8782 82.6649 16.7783 82.734 16.7073C82.8031 16.6363 82.9003 16.6022 82.9972 16.6149H94.1672V16.6304Z" fill="black"/>
<path d="M104.293 16.4138C108.154 16.5028 111.222 19.7744 111.166 23.7421C111.11 27.7098 107.95 30.8885 104.089 30.8623C100.228 30.8361 97.1096 27.6148 97.1045 23.6467C97.1041 21.7014 97.8662 19.8379 99.2189 18.4769C100.572 17.1159 102.401 16.3722 104.293 16.4138ZM100.034 23.6467C100.067 26.0451 101.979 27.966 104.313 27.9462C106.647 27.9265 108.527 25.9736 108.522 23.5749C108.517 21.1763 106.627 19.2323 104.293 19.2236C103.143 19.179 102.027 19.6322 101.218 20.4731C100.408 21.3139 99.9785 22.4652 100.034 23.6467Z" fill="black"/>
<path d="M121.187 27.8388V16.9777C121.175 16.8782 121.208 16.7783 121.277 16.7073C121.346 16.6363 121.443 16.6022 121.54 16.6149H123.696C123.793 16.6022 123.89 16.6363 123.959 16.7073C124.028 16.7783 124.062 16.8782 124.049 16.9777V27.8388H128.331V16.9777C128.318 16.8782 128.352 16.7783 128.421 16.7073C128.49 16.6363 128.587 16.6022 128.684 16.6149H130.84C130.937 16.6022 131.034 16.6363 131.103 16.7073C131.172 16.7783 131.205 16.8782 131.193 16.9777V30.2858C131.205 30.3854 131.172 30.4853 131.103 30.5563C131.034 30.6273 130.937 30.6614 130.84 30.6486H114.397C114.302 30.6508 114.211 30.6132 114.145 30.5447C114.078 30.4762 114.042 30.3827 114.044 30.2858V16.9777C114.031 16.8782 114.064 16.7783 114.133 16.7073C114.203 16.6363 114.3 16.6022 114.397 16.6149H116.553C116.649 16.6022 116.747 16.6363 116.816 16.7073C116.885 16.7783 116.918 16.8782 116.906 16.9777V27.8388H121.187Z" fill="black"/>
<path d="M145.097 16.6306C145.194 16.6178 145.291 16.6519 145.36 16.7229C145.429 16.7939 145.462 16.8938 145.45 16.9934V19.1007C145.462 19.2003 145.429 19.3002 145.36 19.3712C145.291 19.4422 145.194 19.4763 145.097 19.4635H140.74V30.2706C140.752 30.3702 140.719 30.47 140.65 30.541C140.581 30.612 140.484 30.6461 140.387 30.6334H138.186C138.089 30.6461 137.992 30.612 137.923 30.541C137.854 30.47 137.821 30.3702 137.833 30.2706V19.4635H133.499C133.402 19.4763 133.305 19.4422 133.235 19.3712C133.166 19.3002 133.133 19.2003 133.146 19.1007V16.9934C133.133 16.8938 133.166 16.7939 133.235 16.7229C133.305 16.6519 133.402 16.6178 133.499 16.6306H145.119H145.097Z" fill="black"/>
<path d="M155.809 27.8693H148.996L148.042 30.3395C147.984 30.5304 147.808 30.6573 147.613 30.6482H145.135C144.887 30.6482 144.812 30.517 144.887 30.2854L150.776 16.823C150.826 16.6869 150.958 16.6017 151.099 16.6146H153.953C154.094 16.6017 154.226 16.6869 154.276 16.823L159.91 30.2314C159.949 30.3247 159.939 30.4322 159.882 30.5156C159.826 30.5989 159.731 30.6462 159.632 30.6405H157.251C157.018 30.6487 156.806 30.5025 156.725 30.2777L155.809 27.8693ZM150.047 25.1675H154.802L152.601 19.4012H152.323L150.047 25.1675Z" fill="black"/>
<path d="M39.7749 42.6749V36.7002H43.6209V37.3949H40.5486V42.7135H39.7974L39.7749 42.6749Z" fill="black"/>
<path d="M50.3513 39.6178C50.3513 41.3778 49.4048 42.8136 47.5494 42.8136C45.694 42.8136 44.7476 41.3469 44.7476 39.6024C44.7476 37.7266 45.8368 36.5146 47.5419 36.5146C49.3673 36.5224 50.3513 37.8269 50.3513 39.6178ZM45.5213 39.6564C45.5213 41.1617 46.3175 42.1266 47.557 42.1266C48.7964 42.1266 49.5776 41.1462 49.5776 39.6564C49.5776 38.1666 48.7814 37.2094 47.5419 37.2094C46.1598 37.2171 45.5138 38.3827 45.5138 39.6641L45.5213 39.6564Z" fill="black"/>
<path d="M56.3981 42.6747H55.6469V37.3561H53.4835L53.3709 40.7371C53.3333 41.9413 52.9051 42.7982 52.0188 42.7982C51.8287 42.7896 51.6412 42.7505 51.4629 42.6824V42.0108C51.5955 42.07 51.739 42.099 51.8835 42.0957C52.3042 42.0957 52.6347 41.8564 52.6347 40.3357L52.7399 36.6768H56.4131V42.6824L56.3981 42.6747Z" fill="black"/>
<path d="M63.8201 39.6178C63.8201 41.3778 62.8736 42.8136 61.0182 42.8136C59.1628 42.8136 58.2163 41.3469 58.2163 39.6024C58.2163 37.7266 59.313 36.5146 61.0107 36.5146C62.8285 36.5224 63.8201 37.8269 63.8201 39.6178ZM58.99 39.6564C58.99 41.1617 59.7863 42.1266 61.0257 42.1266C62.2651 42.1266 63.0464 41.1462 63.0464 39.6564C63.0464 38.1666 62.2501 37.2094 61.0107 37.2094C59.6285 37.2171 58.99 38.3827 58.99 39.6641V39.6564Z" fill="black"/>
<path d="M68.1469 36.7002C69.1159 36.7002 70.0098 37.0939 70.0098 38.2055C70.0204 38.781 69.673 39.2995 69.1459 39.4946C69.8523 39.6344 70.3398 40.3025 70.2727 41.0384C70.2727 42.4202 69.1685 42.7367 68.0192 42.7367H65.6079V36.7002H68.1469ZM66.4042 39.2707H67.7938C68.4549 39.2707 69.2436 39.2167 69.2436 38.3212C69.2436 37.4258 68.56 37.3795 67.8689 37.3795H66.4042V39.2784V39.2707ZM66.4042 42.0342H67.9516C68.7027 42.0342 69.499 41.9802 69.499 40.9304C69.499 39.8805 68.6051 39.896 67.8239 39.896H66.4117V42.0419L66.4042 42.0342Z" fill="black"/>
<path d="M76.7479 42.6749H75.9967V39.8651H72.9094V42.6749H72.1582V36.7002H72.9094V39.209H75.9967V36.7002H76.7479V42.7058V42.6749Z" fill="black"/>
<path d="M83.7939 42.6755H82.93L82.284 40.8383H79.8277L79.1591 42.6755H78.3403L80.6389 36.6699H81.5103L83.7939 42.6755ZM81.0596 37.4264L80.0455 40.2054H82.0511L81.0596 37.4264Z" fill="black"/>
<path d="M93.3187 42.6749H92.5675V37.3563H89.4802V42.6749H88.729V36.7002H93.3637V42.7058L93.3187 42.6749Z" fill="black"/>
<path d="M100.755 39.6178C100.755 41.3778 99.8086 42.8136 97.9532 42.8136C96.0978 42.8136 95.1514 41.3469 95.1514 39.6024C95.1514 37.7266 96.2406 36.5146 97.9457 36.5146C99.7636 36.5224 100.755 37.8269 100.755 39.6178ZM95.9251 39.6564C95.9251 41.1617 96.7213 42.1266 97.9608 42.1266C99.2002 42.1266 99.9814 41.1462 99.9814 39.6564C99.9814 38.1666 99.1852 37.2094 97.9457 37.2094C96.5636 37.2171 95.9401 38.3827 95.9401 39.6641L95.9251 39.6564Z" fill="black"/>
<path d="M102.573 36.7002H103.324V42.0188H105.923V36.7002H106.674V42.0188H109.273V36.7002H110.024V42.7058H102.513V36.7002H102.573Z" fill="black"/>
<path d="M116.425 37.3563H114.464V42.6749H113.713V37.3563H111.715V36.7002H116.417V37.3949L116.425 37.3563Z" fill="black"/>
<path d="M122.156 42.6749H121.292L120.646 40.8377H118.19L117.521 42.6749H116.703L119.001 36.7002H119.873L122.156 42.6749ZM119.422 37.4258L118.408 40.2048H120.413L119.422 37.4258Z" fill="black"/>
<path d="M129.33 39.0777L131.891 42.6749H130.907L128.789 39.5872L127.82 40.5598V42.6672H127.069V36.7002H127.82V39.6798L130.787 36.7002H131.801L129.33 39.0777Z" fill="black"/>
<path d="M135.933 36.7002C137.052 36.7002 137.878 37.1788 137.878 38.4293C137.878 39.6798 137.022 40.2434 135.88 40.2434H134.295V42.7058H133.544V36.7002H135.955H135.933ZM134.295 39.5795H135.797C136.549 39.5795 137.12 39.3711 137.12 38.4834C137.12 37.5956 136.451 37.3872 135.692 37.3872H134.31V39.5795H134.295Z" fill="black"/>
<path d="M144.015 42.6755H143.152L142.513 40.8383H140.057L139.388 42.6755H138.569L140.868 36.6699H141.762L144.015 42.6755ZM141.281 37.4264L140.267 40.2054H142.273L141.281 37.4264Z" fill="black"/>
<path d="M145.623 36.1519H144.872V35.3027H145.623V36.1519ZM146.411 42.6747H145.66V36.6999H146.411V42.7055V42.6747ZM147.163 36.1519H146.411V35.3027H147.163V36.1519Z" fill="black"/>
<path d="M153.187 42.6749H152.436V39.8651H149.348V42.6749H148.597V36.7002H149.348V39.209H152.436V36.7002H153.187V42.7058V42.6749Z" fill="black"/>
<path d="M155.283 36.7002H156.034V41.7872L158.903 36.7002H159.88V42.7058H159.129V37.6034L156.252 42.7058H155.283V36.7002Z" fill="black"/>
</g>
<defs>
<clipPath id="clip0_238_690">
<rect width="160" height="44" fill="white" transform="translate(0 8)"/>
</clipPath>
</defs>
</svg>
