<svg width="72" height="72" viewBox="0 0 72 72" fill="none" xmlns="http://www.w3.org/2000/svg">
<path d="M38.4491 31.7713C38.4491 41.2219 44.0501 36.0676 50.9626 36.0676C57.8729 36.0676 63.4761 41.224 63.4761 31.7713C63.4761 25.603 57.8729 18.8845 50.9626 18.8845C44.0523 18.8845 38.4491 25.603 38.4491 31.7713ZM63.9586 14.7463C63.0967 17.5606 63.9432 20.28 65.849 20.8197C67.7569 21.3594 70.0004 19.5148 70.8623 16.6984C71.7241 13.8841 70.8798 11.1646 68.9719 10.6249C67.0639 10.0853 64.8204 11.9298 63.9586 14.7463ZM31.063 16.7363C31.9555 19.5443 34.2253 21.3657 36.1333 20.8049C38.0412 20.2442 38.8614 17.5142 37.9688 14.7062C37.0763 11.8982 34.8065 10.0768 32.8985 10.6376C30.9928 11.1983 30.1704 13.9283 31.063 16.7363ZM53.2346 6.49307C52.4319 10.4942 53.7105 14.0949 56.0899 14.5355C58.4672 14.9739 61.0462 12.088 61.8467 8.08679C62.6515 4.08562 61.373 0.484995 58.9935 0.0444028C56.6141 -0.396189 54.0351 2.4919 53.2346 6.49307ZM40.0851 8.13317C40.9338 12.1259 43.5457 14.9845 45.9186 14.5186C48.2915 14.0527 49.5284 10.4373 48.6796 6.44458C47.8309 2.45185 45.219 -0.40673 42.8462 0.0591596C40.4733 0.527157 39.2386 4.14043 40.0851 8.13317ZM7.74654 65.5008C7.74654 74.9514 13.3498 69.7971 20.26 69.7971C27.1703 69.7971 32.7735 74.9514 32.7735 65.5008C32.7735 59.3346 27.1703 52.614 20.26 52.614C13.3498 52.614 7.74654 59.3346 7.74654 65.5008ZM33.256 48.4737C32.3919 51.2901 33.2406 54.0096 35.1464 54.5492C37.0543 55.0889 39.2978 53.2443 40.1597 50.43C41.0216 47.6136 40.175 44.8942 38.2693 44.3545C36.3613 43.8148 34.1179 45.6594 33.256 48.4737ZM0.360374 50.4659C1.25294 53.2738 3.52275 55.0952 5.43069 54.5345C7.33645 53.9737 8.15884 51.2437 7.26627 48.4379C6.3737 45.6299 4.1039 43.8085 2.19596 44.3692C0.290207 44.9279 -0.532196 47.6579 0.360374 50.4659ZM22.532 40.2226C21.7316 44.2217 23.0101 47.8244 25.3874 48.2629C27.7668 48.7035 30.3458 45.8175 31.1463 41.8142C31.9468 37.8131 30.6682 34.2124 28.291 33.7718C25.9115 33.3334 23.3325 36.2214 22.532 40.2226ZM9.38255 41.8627C10.2335 45.8533 12.8432 48.714 15.216 48.2481C17.5889 47.7801 18.828 44.1648 17.9793 40.1741C17.1284 36.1814 14.5187 33.3228 12.1458 33.7887C9.77291 34.2567 8.53385 37.8721 9.38255 41.8627Z" fill="#B6E1F2"/>
</svg>
