<svg width="72" height="72" viewBox="0 0 72 72" fill="none" xmlns="http://www.w3.org/2000/svg">
<path d="M29.2 36C37.1537 36 43.6 29.5537 43.6 21.6C43.6 13.6462 37.1537 7.19995 29.2 7.19995C21.2462 7.19995 14.8 13.6462 14.8 21.6C14.8 29.5537 21.2462 36 29.2 36ZM39.28 39.6H37.4012C34.9037 40.7475 32.125 41.4 29.2 41.4C26.275 41.4 23.5075 40.7475 20.9987 39.6H19.12C10.7725 39.6 4 46.3725 4 54.72V59.4C4 62.3812 6.41875 64.8 9.4 64.8H49C51.9812 64.8 54.4 62.3812 54.4 59.4V54.72C54.4 46.3725 47.6275 39.6 39.28 39.6Z" fill="#B6E1F2"/>
<path d="M68 31.2443C68 28.1271 65.5388 25.6001 62.5028 25.6001C60.3626 25.6001 58.508 26.8559 57.6 28.6891C56.6919 26.8559 54.8373 25.6001 52.6971 25.6001C49.6611 25.6001 47.2 28.1271 47.2 31.2443C47.2 32.449 47.5676 33.5656 48.1939 34.4822C49.1882 35.9373 55.8117 41.6312 57.6001 43.2001C59.3885 41.6312 66.0117 35.9373 67.006 34.4822C67.6323 33.5656 68 32.449 68 31.2443Z" fill="#B6E1F2"/>
</svg>
