<svg width="160" height="32" viewBox="0 0 160 32" fill="none" xmlns="http://www.w3.org/2000/svg">
<g id="Purina  logo svg">
<g id="layer1">
<g id="g7315">
<g id="Clip path group">
<mask id="mask0_1062_3697" style="mask-type:luminance" maskUnits="userSpaceOnUse" x="3" y="2" width="154" height="29">
<g id="clipPath7319">
<path id="path7321" d="M3.95312 2.3553H156.77V30.1641H3.95312V2.3553Z" fill="white"/>
</g>
</mask>
<g mask="url(#mask0_1062_3697)">
<g id="g7317">
<path id="path7323" d="M3.95312 30.1641H156.77V2.3553H3.95312V30.1641Z" fill="white"/>
</g>
</g>
</g>
</g>
<path id="path7325" d="M31.3994 29.3516H156.035V3.18359H31.3994V29.3516Z" fill="#292526"/>
<path id="path7327" d="M4.75488 29.3516H30.4103V3.18359H4.75488V29.3516Z" fill="white"/>
<path id="path7329" d="M5.56738 28.5232H29.5979V4.01172H5.56738V28.5232Z" fill="white"/>
<path id="path7331" d="M42.0982 9.45639C42.6337 9.33218 43.0879 9.26819 43.4351 9.26819C44.0666 9.26819 44.6316 9.41499 45.1228 9.70482C45.6066 9.99089 45.987 10.4313 46.2566 11.0109C46.5298 11.6057 46.6665 12.2606 46.6665 12.957C46.6665 13.9544 46.3821 14.7788 45.8208 15.4036C45.2558 16.0284 44.6058 16.3295 43.8339 16.3295C43.6124 16.3295 43.3354 16.3107 43.0178 16.2731C42.7482 16.2354 42.4343 16.1827 42.0982 16.1225V9.45639ZM46.7625 8.27072C45.8873 7.95078 44.6833 7.78516 43.1877 7.78516H36.8984V8.72617H37.7589C38.3166 8.72617 38.7191 8.8805 38.9924 9.19291C39.0921 9.31336 39.2583 9.70482 39.2583 11.0147V21.9681C39.2583 23.1613 39.1327 23.5452 39.0552 23.6694C38.8003 24.0609 38.3756 24.2529 37.7589 24.2529H36.8984V25.1976H44.4544V24.2529H43.5902C43.0362 24.2529 42.6374 24.1023 42.3789 23.7899C42.2718 23.6694 42.0982 23.2742 42.0982 21.9681V17.3421C42.5118 17.4324 42.9218 17.5039 43.3095 17.5566C43.7822 17.6168 44.2254 17.647 44.6279 17.647C46.3009 17.647 47.6193 17.1877 48.5499 16.2768C49.4806 15.3659 49.9496 14.169 49.9496 12.7236C49.9496 11.6546 49.6394 10.7136 49.0226 9.93066C48.4133 9.15527 47.6525 8.59819 46.7625 8.27072Z" fill="white"/>
<path id="path7333" d="M66.3143 7.6875H66.0779V8.62851H66.931C67.4849 8.62851 67.8875 8.77907 68.1571 9.09525C68.2605 9.2157 68.4377 9.61845 68.4377 10.917V17.7563C68.4377 19.5104 68.2826 20.76 67.9835 21.479C67.6918 22.1753 67.1304 22.7587 66.3216 23.2142C65.5055 23.6734 64.5601 23.9068 63.5149 23.9068C62.7062 23.9068 62.0156 23.76 61.469 23.4701C60.9224 23.1841 60.5014 22.819 60.2134 22.3823C59.9216 21.9419 59.7185 21.3096 59.6077 20.5003C59.4895 19.6722 59.4305 18.9232 59.4305 18.2795V10.917C59.4305 9.80289 59.5708 9.35873 59.689 9.18182C59.9327 8.80918 60.3389 8.62851 60.9298 8.62851H61.7903V7.6875H54.2344V8.62851H55.0838C55.623 8.62851 56.0107 8.76401 56.2397 9.03126C56.4022 9.21946 56.5942 9.70126 56.5942 10.917V17.5229C56.5942 19.6082 56.7272 20.9972 57.0005 21.7688C57.4067 22.8942 58.1084 23.8014 59.087 24.4676C60.062 25.1338 61.4912 25.4688 63.3451 25.4688C65.0476 25.4688 66.4214 25.1188 67.4259 24.4262C68.4304 23.7336 69.1136 22.8829 69.4607 21.9043C69.8005 20.9482 69.9704 19.5969 69.9704 17.8843V11.0413C69.9704 9.86688 70.1033 9.48671 70.1845 9.3625C70.4911 8.86564 70.9121 8.62851 71.4771 8.62851H72.3302V7.6875H72.0938" fill="white"/>
<path id="path7335" d="M82.7664 9.43381C83.4533 9.2983 84.0183 9.22678 84.4283 9.22678C85.4143 9.22678 86.2157 9.53544 86.8103 10.1452C87.4085 10.7625 87.704 11.5454 87.704 12.5429C87.704 13.5554 87.3384 14.3685 86.5924 15.0234C85.8464 15.6784 84.7052 16.0134 83.2059 16.0134C83.1431 16.0134 83.0618 16.0096 82.9363 16.0058C82.892 16.0058 82.8329 16.0021 82.7664 16.0021V9.43381ZM92.239 23.5904C91.7072 23.2403 91.0499 22.5101 90.2891 21.4223C90.2854 21.4185 87.7926 17.9067 87.054 16.864C88.3207 16.5253 89.2883 15.987 89.9272 15.253C90.6288 14.4475 90.9871 13.4802 90.9871 12.3848C90.9871 11.3572 90.6732 10.4576 90.0564 9.71235C89.4471 8.97836 88.6937 8.46645 87.8148 8.19167C86.958 7.92066 85.6248 7.78516 83.8485 7.78516H77.5703V8.72616H78.4234C78.981 8.72616 79.3799 8.88049 79.6495 9.19291C79.7566 9.31336 79.9302 9.70858 79.9302 11.0147V21.9681C79.9302 23.1575 79.7935 23.5414 79.716 23.6657C79.4611 24.0609 79.0401 24.2529 78.4234 24.2529H77.5703V25.1939H85.1262V24.2529H84.2473C83.7007 24.2529 83.3093 24.1023 83.0471 23.7899C82.94 23.6694 82.7664 23.2742 82.7664 21.9681V17.2856C82.807 17.2894 82.8513 17.2931 82.892 17.2931C82.9991 17.2969 83.1135 17.2969 83.2317 17.2969C83.4681 17.2969 83.7635 17.2894 84.1033 17.2781L89.6724 25.096L89.7425 25.1939H94.5545V24.2792L94.3403 24.2566C93.4762 24.1587 92.7708 23.9367 92.239 23.5904Z" fill="white"/>
<path id="path7337" d="M99.6465 7.78906H99.4102V8.73008H100.23C100.577 8.73008 100.913 8.82041 101.235 9.00109C101.434 9.11777 101.567 9.25704 101.626 9.41513C101.692 9.58075 101.77 9.99479 101.77 11.0186V21.9682C101.77 23.2216 101.615 23.6206 101.523 23.7448C101.264 24.0874 100.839 24.2568 100.23 24.2568H99.4102V25.1978H106.966V24.2568H106.135C105.792 24.2568 105.459 24.1664 105.149 23.9895C104.942 23.8691 104.806 23.7298 104.747 23.5755C104.68 23.4098 104.606 22.992 104.606 21.9682V11.0186C104.606 9.76518 104.765 9.36996 104.857 9.24575C105.12 8.89946 105.537 8.73008 106.135 8.73008H106.966V7.78906H106.726" fill="white"/>
<path id="path7339" d="M130.642 8.70011V8H124.386V8.94101H125.203C125.782 8.94101 126.207 9.09157 126.462 9.38893C126.569 9.50938 126.746 9.90461 126.746 11.1881V20.2557L116.926 8.09034L116.856 8H112V8.94101H112.24C112.694 8.94101 113.034 8.97865 113.245 9.0464C113.699 9.19697 114.042 9.35882 114.275 9.52821C114.489 9.69006 114.829 10.0476 115.268 10.5746V22.2243C115.268 23.4062 115.128 23.7939 115.039 23.9219C114.792 24.2908 114.36 24.4677 113.725 24.4677H112.908V25.4087H119.164V24.4677H118.337C117.761 24.4677 117.336 24.3171 117.074 24.0198C116.975 23.9031 116.805 23.5116 116.805 22.2243V12.4679L127.426 25.5969L127.496 25.6835H128.279V11.1881C128.279 10.0062 128.423 9.61854 128.508 9.49056C128.759 9.12169 129.184 8.94101 129.811 8.94101H130.642" fill="white"/>
<path id="path7341" d="M142.759 12.1416L145.155 18.1113H140.214L142.759 12.1416ZM152.287 24.2505C151.666 24.2129 151.183 24.0435 150.846 23.7423C150.492 23.4299 150.086 22.7185 149.643 21.627L143.988 7.56072L143.926 7.41016H143.117L143.054 7.55695L137.116 21.4538C136.625 22.6545 136.178 23.4525 135.786 23.8289C135.69 23.923 135.406 24.1037 134.564 24.2543L134.368 24.2919V25.1915H140.055V24.2693L139.834 24.2505C138.903 24.1827 138.541 24.0359 138.405 23.923C138.22 23.7762 138.131 23.6144 138.131 23.4299C138.131 23.2304 138.202 22.8277 138.53 22.0523C138.53 22.0523 139.365 20.0987 139.597 19.553H145.735C145.946 20.0762 146.655 21.8377 146.655 21.8415C146.969 22.5905 147.128 23.1401 147.128 23.4676C147.128 23.6633 147.043 23.8289 146.865 23.972C146.736 24.0774 146.419 24.2166 145.665 24.2505L145.436 24.2618V25.1915H152.512V24.2655" fill="white"/>
<path id="path7343" d="M4.75488 29.3516H30.4103V3.18359H4.75488V29.3516Z" fill="#ED2232"/>
<path id="path7345" d="M5.62207 28.4179H29.4421V4.11719H5.62207V28.4179Z" fill="white"/>
<path id="path7347" d="M6.58984 12.5301H13.9168V5.05469H6.58984V12.5301Z" fill="#ED2232"/>
<path id="path7349" d="M21.2471 12.5301H28.5777V5.05469H21.2471V12.5301Z" fill="#ED2232"/>
<path id="path7351" d="M13.917 20.007H21.2476V12.5312H13.917V20.007Z" fill="#ED2232"/>
<path id="path7353" d="M6.58984 27.4831H13.9168V20.0039H6.58984V27.4831Z" fill="#ED2232"/>
<path id="path7355" d="M21.2471 27.4831H28.5777V20.0039H21.2471V27.4831Z" fill="#ED2232"/>
</g>
</g>
</svg>
