<svg width="160" height="59" viewBox="0 0 160 59" fill="none" xmlns="http://www.w3.org/2000/svg">
<g id="royal canin logo svg">
<path id="Vector" d="M70.3139 53.5881H66.009C65.8655 53.5881 65.7937 53.4448 65.7937 53.3731V40.406C65.8655 40.1911 65.8655 39.9045 65.7937 39.6896C65.5785 38.4717 64.4305 37.6836 63.2108 37.8269C61.991 38.0418 61.2018 39.1881 61.3453 40.406V56.597C61.3453 57.2418 61.8475 57.8149 62.565 57.8866H70.3139C70.3857 57.8866 70.4574 57.8866 70.5291 57.8866C71.6771 57.8149 72.5381 56.812 72.4664 55.6657C72.4664 54.3045 71.5336 53.5164 70.3139 53.5881ZM54.7444 38.9015L43.2646 54.3761C42.9776 54.7343 42.8341 55.1642 42.8341 55.6657C42.8341 56.3105 43.1211 57.0269 43.7668 57.3851C44.7713 58.0299 45.991 57.8149 46.7085 56.9552L48.9327 53.9463H54.3139V55.6657C54.3856 56.8836 55.3901 57.8149 56.5381 57.7433C57.7578 57.7433 58.6188 56.7403 58.6188 55.6657V40.3343C58.6188 39.6896 58.3318 39.0448 57.9013 38.6866C56.9686 37.8269 55.5336 37.8985 54.7444 38.9015ZM54.2421 49.5761H52.2332C52.1614 49.5761 52.0897 49.5045 52.0897 49.4328L54.2421 46.4955C54.2421 46.4239 54.2421 49.5761 54.2421 49.5761ZM48.4305 40.406C48.4305 39.2597 47.4978 38.3284 46.4215 38.3284C45.8475 38.3284 45.2735 38.5433 44.9148 38.9015L40.0359 43.9881C39.9641 44.0597 39.8924 44.0597 39.8206 44.0597C39.7489 44.0597 39.6771 44.0597 39.6771 43.9881L34.7982 38.9015C34.4395 38.5433 33.8655 38.2567 33.2915 38.2567C32.1435 38.2567 31.2825 39.1881 31.2825 40.2627C31.2825 40.7642 31.4978 41.3373 31.7848 41.6955L37.7399 48.5015L37.8117 55.6657C37.8117 56.812 38.7444 57.7433 39.8924 57.7433C41.0404 57.7433 41.9731 56.812 41.9731 55.6657L42.1166 48.5731L47.9283 41.7672C48.287 41.3373 48.4305 40.8358 48.4305 40.406ZM23.2466 38.2567C17.8655 38.2567 13.4888 42.6269 13.4888 48C13.4888 53.3731 17.8655 57.7433 23.2466 57.7433C28.6278 57.7433 33.0045 53.3015 33.0045 47.9284C33.0045 42.6985 28.6278 38.3284 23.2466 38.2567ZM23.2466 53.1582C20.3049 53.1582 18.009 50.8657 18.009 47.9284C18.009 44.9911 20.3049 42.6985 23.2466 42.6985C26.1883 42.6985 28.4843 44.9911 28.4843 47.9284C28.4843 50.8657 26.1883 53.1582 23.2466 53.1582ZM126.206 37.8269C125.13 37.8985 124.269 38.7582 124.269 39.7612V48.8597C124.269 48.9314 124.197 49.003 124.126 49.003C124.054 49.003 124.054 49.003 124.054 48.9314L118.744 39.5463C117.955 38.1134 116.09 37.6836 114.726 38.5433C113.937 39.0448 113.363 39.9761 113.291 40.9075V55.809C113.363 57.0269 114.439 57.8866 115.516 57.8149C116.592 57.7433 117.453 56.8836 117.525 55.809V46.7105C117.525 46.6388 117.596 46.5672 117.668 46.5672C117.74 46.5672 117.74 46.5672 117.74 46.6388L123.193 56.2388C123.91 57.6 125.632 58.0299 126.996 57.3134C127.928 56.812 128.43 55.8806 128.43 54.9493V39.8328C128.359 38.6866 127.426 37.7552 126.206 37.8269ZM10.0448 49.7911C11.7668 48.7164 12.9148 46.8537 12.843 44.8478C12.843 44.8478 12.843 44.8478 12.843 44.7761C12.9148 41.2657 10.0448 38.3284 6.52915 38.2567C4.80718 38.1134 3.01345 38.6866 1.79372 39.9045C0.430493 41.2657 0 42.9851 0 44.8478L0.286996 55.6657C0.286996 56.812 1.21973 57.7433 2.36771 57.7433C3.51569 57.7433 4.44843 56.812 4.44843 55.6657L4.52018 50.5075C4.52018 50.3642 4.59193 50.2925 4.73543 50.2925C4.73543 50.2925 4.80717 50.2925 4.87892 50.2925L9.97309 57.2418C10.3318 57.6 10.7623 57.7433 11.3363 57.7433C12.4843 57.7433 13.3453 56.812 13.417 55.7373C13.417 55.4508 13.3453 55.1642 13.2018 54.806L10.0448 49.7911ZM6.38565 46.7821C6.24215 46.7821 6.1704 46.7821 6.02691 46.7821C4.80717 46.7105 4.01794 45.6358 4.08969 44.5612C4.16143 43.3433 5.23767 42.5552 6.3139 42.6269C6.4574 42.6269 6.52915 42.6269 6.67265 42.6269C7.89238 42.6985 8.68161 43.7731 8.60987 44.8478C8.53812 45.994 7.46188 47.0687 6.38565 46.7821ZM93.13 51.2239C92.843 51.2239 92.4843 51.2955 92.1256 51.4388L90.4036 52.5851C89.6143 53.0866 88.6099 53.3731 87.6054 53.3731C84.5919 53.2299 82.3677 50.6508 82.5112 47.7851C82.6547 44.9911 84.8072 42.8418 87.6054 42.6985C88.6099 42.6985 89.5426 42.9851 90.4036 43.4866L92.0538 44.6328C92.3408 44.7761 92.6278 44.8478 93.0583 44.8478C94.2063 44.8478 95.139 43.9164 95.139 42.7702C95.139 42.3403 94.9955 41.7672 94.6368 41.409C92.9865 39.4746 90.5471 38.3284 87.8924 38.3284C82.5112 38.3284 78.1345 42.6985 78.1345 48.0717C78.1345 53.2299 82.1525 57.5284 87.3184 57.8149C90.1166 57.8149 92.6995 56.6687 94.6368 54.6627C94.9238 54.3045 95.139 53.8746 95.0673 53.3015C95.2825 52.1552 94.278 51.2239 93.13 51.2239ZM133.022 37.7552C131.731 37.7552 130.798 38.8299 130.798 39.9761V55.6657C130.798 56.9552 131.874 57.8866 133.022 57.8866C134.314 57.8866 135.247 56.812 135.247 55.6657V39.9761C135.247 38.7582 134.314 37.7552 133.022 37.7552ZM100.377 38.8299C99.9462 38.4 99.3004 38.1134 98.6547 38.1134C97.3632 38.1134 96.4305 38.6866 96.4305 39.9761V55.6657C96.4305 56.8836 97.435 57.7433 98.583 57.7433C99.7309 57.7433 100.735 56.812 100.807 55.6657V53.9463H106.188L108.413 56.9552C108.771 57.4567 109.489 57.7433 110.135 57.7433C111.354 57.7433 112.215 56.7403 112.215 55.6657C112.215 55.2358 112.072 54.7343 111.785 54.3761L100.377 38.8299ZM102.96 49.4328C102.96 49.5045 102.888 49.5761 102.816 49.5761H100.807V46.3522L102.96 49.3612C103.031 49.3612 103.031 49.3612 102.96 49.4328ZM150.601 37.8269C149.525 37.8985 148.664 38.7582 148.664 39.7612V48.8597C148.664 48.9314 148.592 49.003 148.52 49.003C148.448 49.003 148.448 49.003 148.377 48.9314L143.139 39.5463C142.35 38.1134 140.484 37.6836 139.121 38.5433C138.332 39.0448 137.758 39.9761 137.686 40.9075V55.809C137.686 57.0269 138.691 57.9582 139.839 57.9582C140.987 57.9582 141.991 56.9552 141.991 55.809V46.7105C141.991 46.6388 142.063 46.5672 142.135 46.5672C142.206 46.5672 142.206 46.5672 142.206 46.6388L147.659 56.2388C148.377 57.6 150.099 58.0299 151.462 57.3134C152.395 56.812 152.897 55.8806 152.897 54.9493V39.8328C152.753 38.6866 151.749 37.7552 150.601 37.8269ZM158.35 39.6179C158.35 39.5463 158.35 39.5463 158.35 39.4746C158.35 38.9015 157.919 38.7582 157.417 38.7582H156.771C156.556 38.7582 156.484 38.9015 156.484 38.9731V40.9075C156.484 41.1224 156.556 41.194 156.771 41.194C156.987 41.194 157.058 41.0508 157.058 40.9075V40.1911H157.202L157.561 40.9075C157.632 41.0508 157.704 41.194 157.919 41.194C158.135 41.194 158.206 41.1224 158.206 40.9791C158.206 40.9075 158.206 40.9075 158.206 40.8358L157.776 40.1911C158.063 40.2627 158.35 39.9045 158.35 39.6179ZM157.489 39.7612H157.058V39.1881H157.489C157.704 39.1881 157.848 39.2597 157.848 39.4746C157.848 39.6896 157.704 39.7612 157.489 39.7612ZM157.417 37.6836C156.126 37.6836 155.121 38.7582 155.121 39.9761C155.121 41.194 156.197 42.2687 157.417 42.2687C158.637 42.2687 159.713 41.194 159.713 39.9761C159.641 38.7582 158.637 37.6836 157.417 37.6836ZM157.417 41.6955C156.413 41.6955 155.695 40.9791 155.695 39.9761C155.695 38.9731 156.413 38.2567 157.417 38.2567C158.422 38.2567 159.139 38.9731 159.139 39.9761C159.139 40.9075 158.35 41.6955 157.417 41.6955Z" fill="#E2001A"/>
<path id="Vector_2" d="M95.2111 27.7987C90.6191 24.4315 83.7312 22.4256 76.6281 22.4256C69.525 22.4256 62.5653 24.4315 58.0451 27.7987C57.6146 28.0853 57.3994 28.5868 57.3994 29.1599C57.3994 30.1629 58.1169 30.8793 59.1214 30.8793C59.4801 30.8793 59.8389 30.736 60.1976 30.5211C63.2828 28.2285 69.238 25.7927 76.7716 25.7927C84.3052 25.7927 90.1886 28.2285 93.2738 30.5211L93.3456 30.5927C94.0631 31.0942 95.2111 30.9509 95.7133 30.1629C96.1438 29.3748 96.0003 28.3002 95.2111 27.7987ZM76.6281 26.5091C70.0272 26.5091 63.785 28.4435 59.9106 31.6674C59.9106 31.6674 59.9106 31.6674 59.8389 31.6674C59.4084 32.0972 59.3366 32.8136 59.6954 33.3151C59.9106 33.6017 60.1976 33.745 60.6281 33.745C60.9151 33.745 61.1303 33.6733 61.3456 33.4584C64.7895 30.5927 70.5294 28.8017 76.5563 28.8017C82.5833 28.8017 88.2514 30.5211 91.7671 33.4584C92.2694 33.8882 93.0586 33.8166 93.4173 33.3151C93.8478 32.8136 93.7761 32.0256 93.2738 31.6674C89.3994 28.5151 83.1572 26.5091 76.6281 26.5091ZM55.2469 14.1151C55.7492 12.0375 54.5294 9.95989 52.377 9.31511C52.09 9.24347 51.7312 9.17183 51.3725 9.17183C49.22 9.17183 47.498 10.8912 47.498 13.0405C47.498 15.1897 49.22 16.9091 51.3725 16.9091C53.3097 17.0524 54.8164 15.8345 55.2469 14.1151ZM76.6281 20.133C78.7806 20.133 80.5025 18.4136 80.5025 16.2644C80.5025 14.1151 78.7806 12.3957 76.6281 12.3957C74.4756 12.3957 72.7537 14.1151 72.7537 16.2644C72.7537 18.4136 74.4039 20.133 76.6281 20.133ZM76.6281 10.2465C78.7806 10.2465 80.5025 8.52705 80.5025 6.3778C80.5025 4.22854 78.7806 2.4375 76.6281 2.4375C74.4756 2.4375 72.7537 4.1569 72.7537 6.30616C72.6819 8.52705 74.4039 10.2465 76.6281 10.2465ZM65.1483 13.7569C63.0676 14.33 61.8478 16.5509 62.4218 18.6285C62.8523 20.2763 64.4308 21.4226 66.1528 21.4942H66.2245C66.5115 21.4942 66.8702 21.4226 67.229 21.3509C69.3097 20.7778 70.5294 18.6285 70.0272 16.5509C69.5967 14.8315 68.0182 13.6136 66.2245 13.6136C65.794 13.6136 65.507 13.6853 65.1483 13.7569ZM60.2694 22.5688C60.7716 20.4912 59.5519 18.2703 57.3994 17.7688C57.1124 17.6972 56.7537 17.6256 56.3949 17.6256C55.7492 17.6256 55.0317 17.8405 54.3859 18.1271C53.4532 18.6285 52.8075 19.5599 52.5922 20.4912C52.3052 21.5659 52.4487 22.5688 53.0227 23.5002C53.6685 24.7181 54.9599 25.3629 56.3949 25.4345C57.0406 25.4345 57.8299 25.2912 58.4039 24.933C59.3366 24.4315 60.0541 23.5718 60.2694 22.5688ZM86.0272 21.2793C86.3859 21.3509 86.6729 21.4226 87.1034 21.4226C89.2559 21.4226 90.9779 19.6315 90.9779 17.5539C90.9779 15.7629 89.7581 14.2584 88.1079 13.8285C87.7492 13.7569 87.4622 13.6853 87.0317 13.6853C84.8792 13.6853 83.1572 15.4763 83.1572 17.6256C83.0855 19.2733 84.3052 20.8494 86.0272 21.2793ZM88.6102 11.8226C88.8972 11.8942 89.2559 11.9659 89.6864 11.9659C91.8389 11.9659 93.5608 10.1748 93.5608 8.0972C93.5608 6.30616 92.3411 4.80168 90.6909 4.37183C90.3321 4.30019 90.0451 4.22854 89.6146 4.22854C87.4622 4.22854 85.7402 6.01959 85.7402 8.16884C85.7402 9.74496 86.9599 11.3211 88.6102 11.8226ZM98.7985 18.1987C98.2245 17.8405 97.507 17.6972 96.8613 17.6972C94.7088 17.6972 92.9868 19.4166 92.9868 21.5659C92.9868 21.8524 93.0586 22.2106 93.1303 22.5688C93.3456 23.5718 94.0631 24.4315 94.9241 24.933C96.7895 26.0793 99.229 25.3629 100.305 23.5002C100.807 22.5688 100.951 21.5659 100.736 20.4912C100.305 19.6315 99.6595 18.7718 98.7985 18.1987ZM105.615 12.1808C105.399 11.1778 104.682 10.3181 103.821 9.8166C101.955 8.67034 99.516 9.38675 98.4398 11.2494C97.9375 12.1808 97.794 13.1838 98.0093 14.2584C98.2245 15.2614 98.942 16.1211 99.803 16.6226C101.668 17.7688 104.108 17.1241 105.184 15.2614C105.758 14.2584 105.902 13.0405 105.615 12.1808ZM63.6415 11.9659C64.0003 11.9659 64.359 11.8942 64.7178 11.8226C66.7985 11.2494 68.0182 9.02855 67.516 7.02257C67.0855 5.30317 65.507 4.1569 63.785 4.1569C63.4263 4.1569 63.1393 4.22854 62.7088 4.30019C60.6281 4.87332 59.4084 7.09422 59.9106 9.10019C60.3411 10.7479 61.8478 11.9659 63.6415 11.9659Z" fill="#E2001A"/>
</g>
</svg>
