<svg width="25" height="24" viewBox="0 0 25 24" fill="none" xmlns="http://www.w3.org/2000/svg">
<g id="Icons">
<path id="Vector" d="M13.4604 10.7094C13.4604 13.895 15.3484 12.1576 17.6784 12.1576C20.0077 12.1576 21.8965 13.8957 21.8965 10.7094C21.8965 8.63021 20.0077 6.36555 17.6784 6.36555C15.3491 6.36555 13.4604 8.63021 13.4604 10.7094ZM22.0591 4.97065C21.7686 5.9193 22.0539 6.83596 22.6963 7.01787C23.3394 7.19979 24.0957 6.57802 24.3862 5.62866C24.6767 4.68002 24.3921 3.76335 23.749 3.58144C23.1058 3.39953 22.3496 4.0213 22.0591 4.97065ZM10.9707 5.64145C11.2715 6.58796 12.0366 7.20192 12.6798 7.0129C13.3229 6.82388 13.5994 5.90366 13.2985 4.95715C12.9976 4.01064 12.2325 3.39669 11.5894 3.5857C10.947 3.77472 10.6698 4.69494 10.9707 5.64145ZM18.4443 2.18868C18.1737 3.53738 18.6047 4.75108 19.4067 4.89959C20.2081 5.0474 21.0774 4.07459 21.3472 2.72588C21.6185 1.37718 21.1875 0.163481 20.3855 0.0149672C19.5834 -0.133547 18.7141 0.839967 18.4443 2.18868ZM14.0119 2.74152C14.2979 4.08738 15.1784 5.05095 15.9782 4.89391C16.778 4.73687 17.195 3.5182 16.9089 2.17233C16.6228 0.826466 15.7424 -0.1371 14.9425 0.0199414C14.1427 0.177693 13.7265 1.39565 14.0119 2.74152ZM3.11121 22.0789C3.11121 25.2645 4.99994 23.5271 7.32924 23.5271C9.65855 23.5271 11.5473 25.2645 11.5473 22.0789C11.5473 20.0004 9.65855 17.7351 7.32924 17.7351C4.99994 17.7351 3.11121 20.0004 3.11121 22.0789ZM11.7099 16.3394C11.4186 17.2888 11.7047 18.2055 12.3471 18.3874C12.9902 18.5693 13.7465 17.9475 14.037 16.9989C14.3275 16.0495 14.0422 15.1329 13.3998 14.9509C12.7566 14.769 12.0004 15.3908 11.7099 16.3394ZM0.621492 17.011C0.922358 17.9575 1.68746 18.5714 2.33059 18.3824C2.97298 18.1934 3.25019 17.2732 2.94932 16.3274C2.64846 15.3809 1.88336 14.7669 1.24023 14.9559C0.597839 15.1442 0.320625 16.0645 0.621492 17.011ZM8.09508 13.5582C7.82526 14.9062 8.25623 16.1206 9.05756 16.2684C9.85962 16.4169 10.7289 15.4441 10.9988 14.0947C11.2686 12.746 10.8376 11.5323 10.0363 11.3838C9.23423 11.236 8.3649 12.2095 8.09508 13.5582ZM3.66268 14.111C3.9495 15.4562 4.82918 16.4205 5.62902 16.2634C6.42886 16.1057 6.84653 14.887 6.56045 13.5418C6.27362 12.196 5.39394 11.2324 4.5941 11.3895C3.79426 11.5472 3.37659 12.7659 3.66268 14.111Z" fill="#009CD9"/>
</g>
</svg>
