<svg width="20" height="19" viewBox="0 0 20 19" fill="none" xmlns="http://www.w3.org/2000/svg">
<path d="M3.82572 16.1098C3.82572 20.9017 6.59183 18.2882 10.0056 18.2882C13.4183 18.2882 16.1855 20.9028 16.1855 16.1098C16.1855 12.9821 13.4183 9.57546 10.0056 9.57546C6.59292 9.57546 3.82572 12.9821 3.82572 16.1098ZM16.4238 7.47717C15.9981 8.90417 16.4162 10.2831 17.3574 10.5567C18.2996 10.8304 19.4076 9.89507 19.8332 8.46699C20.2589 7.03998 19.8419 5.66107 18.8996 5.38743C17.9574 5.11378 16.8494 6.04909 16.4238 7.47717ZM0.178001 8.48623C0.618803 9.91003 1.73976 10.8336 2.68202 10.5492C3.62427 10.2649 4.02933 8.88066 3.58853 7.45686C3.14773 6.03306 2.02677 5.10951 1.08451 5.39384C0.143343 5.67817 -0.262802 7.06243 0.178001 8.48623ZM11.1277 3.29234C10.7313 5.32115 11.3627 7.14687 12.5378 7.37028C13.7118 7.59261 14.9855 6.12926 15.3808 4.10045C15.7783 2.07164 15.1469 0.245919 13.9718 0.0225146C12.7966 -0.20089 11.523 1.26353 11.1277 3.29234ZM4.63367 4.12396C5.05282 6.1485 6.34273 7.59795 7.51459 7.36172C8.68646 7.12549 9.2973 5.29229 8.87816 3.26776C8.45901 1.24322 7.1691 -0.206234 5.99724 0.0299971C4.82538 0.267297 4.21562 2.09943 4.63367 4.12396Z" fill="#B6E1F2"/>
</svg>
