<svg width="24" height="24" viewBox="0 0 24 24" fill="none" xmlns="http://www.w3.org/2000/svg">
<path d="M5.82572 19.1098C5.82572 23.9017 8.59183 21.2882 12.0056 21.2882C15.4183 21.2882 18.1855 23.9028 18.1855 19.1098C18.1855 15.9821 15.4183 12.5755 12.0056 12.5755C8.59292 12.5755 5.82572 15.9821 5.82572 19.1098ZM18.4238 10.4772C17.9981 11.9042 18.4162 13.2831 19.3574 13.5567C20.2996 13.8304 21.4076 12.8951 21.8332 11.467C22.2589 10.04 21.8419 8.66107 20.8996 8.38743C19.9574 8.11378 18.8494 9.04909 18.4238 10.4772ZM2.178 11.4862C2.6188 12.91 3.73976 13.8336 4.68202 13.5492C5.62427 13.2649 6.02933 11.8807 5.58853 10.4569C5.14773 9.03306 4.02677 8.10951 3.08451 8.39384C2.14334 8.67817 1.7372 10.0624 2.178 11.4862ZM13.1277 6.29234C12.7313 8.32115 13.3627 10.1469 14.5378 10.3703C15.7118 10.5926 16.9855 9.12926 17.3808 7.10045C17.7783 5.07164 17.1469 3.24592 15.9718 3.02251C14.7966 2.79911 13.523 4.26353 13.1277 6.29234ZM6.63367 7.12396C7.05282 9.1485 8.34273 10.598 9.51459 10.3617C10.6865 10.1255 11.2973 8.29229 10.8782 6.26776C10.459 4.24322 9.1691 2.79377 7.99724 3.03C6.82538 3.2673 6.21562 5.09943 6.63367 7.12396Z" fill="#0D0031"/>
</svg>
