<svg width="24" height="24" viewBox="0 0 24 24" fill="none" xmlns="http://www.w3.org/2000/svg">
<path d="M12.9604 10.7094C12.9604 13.895 14.8484 12.1576 17.1784 12.1576C19.5077 12.1576 21.3965 13.8957 21.3965 10.7094C21.3965 8.63021 19.5077 6.36555 17.1784 6.36555C14.8491 6.36555 12.9604 8.63021 12.9604 10.7094ZM21.5591 4.97065C21.2686 5.9193 21.5539 6.83596 22.1963 7.01787C22.8394 7.19979 23.5957 6.57802 23.8862 5.62866C24.1767 4.68002 23.8921 3.76335 23.249 3.58144C22.6058 3.39953 21.8496 4.0213 21.5591 4.97065ZM10.4707 5.64145C10.7715 6.58796 11.5366 7.20192 12.1798 7.0129C12.8229 6.82388 13.0994 5.90366 12.7985 4.95715C12.4976 4.01064 11.7325 3.39669 11.0894 3.5857C10.447 3.77472 10.1698 4.69494 10.4707 5.64145ZM17.9443 2.18868C17.6737 3.53738 18.1047 4.75108 18.9067 4.89959C19.7081 5.0474 20.5774 4.07459 20.8472 2.72588C21.1185 1.37718 20.6875 0.163481 19.8855 0.0149672C19.0834 -0.133547 18.2141 0.839967 17.9443 2.18868ZM13.5119 2.74152C13.7979 4.08738 14.6784 5.05095 15.4782 4.89391C16.278 4.73687 16.695 3.5182 16.4089 2.17233C16.1228 0.826466 15.2424 -0.1371 14.4425 0.0199414C13.6427 0.177693 13.2265 1.39565 13.5119 2.74152ZM2.61121 22.0789C2.61121 25.2645 4.49994 23.5271 6.82924 23.5271C9.15855 23.5271 11.0473 25.2645 11.0473 22.0789C11.0473 20.0004 9.15855 17.7351 6.82924 17.7351C4.49994 17.7351 2.61121 20.0004 2.61121 22.0789ZM11.2099 16.3394C10.9186 17.2888 11.2047 18.2055 11.8471 18.3874C12.4902 18.5693 13.2465 17.9475 13.537 16.9989C13.8275 16.0495 13.5422 15.1329 12.8998 14.9509C12.2566 14.769 11.5004 15.3908 11.2099 16.3394ZM0.121492 17.011C0.422358 17.9575 1.18746 18.5714 1.83059 18.3824C2.47298 18.1934 2.75019 17.2732 2.44932 16.3274C2.14846 15.3809 1.38336 14.7669 0.740227 14.9559C0.0978394 15.1442 -0.179375 16.0645 0.121492 17.011ZM7.59508 13.5582C7.32526 14.9062 7.75623 16.1206 8.55756 16.2684C9.35962 16.4169 10.2289 15.4441 10.4988 14.0947C10.7686 12.746 10.3376 11.5323 9.53629 11.3838C8.73423 11.236 7.8649 12.2095 7.59508 13.5582ZM3.16268 14.111C3.4495 15.4562 4.32918 16.4205 5.12902 16.2634C5.92886 16.1057 6.34653 14.887 6.06045 13.5418C5.77362 12.196 4.89394 11.2324 4.0941 11.3895C3.29426 11.5472 2.87659 12.7659 3.16268 14.111Z" fill="white"/>
</svg>
